<svg width="302" height="77" viewBox="0 0 302 77" fill="none" xmlns="http://www.w3.org/2000/svg">
<path d="M301.134 64.4279C301.134 63.9404 301.047 63.4958 300.861 63.08C300.517 62.2483 299.857 61.5887 299.026 61.2302C298.61 61.0438 298.165 60.9577 297.692 60.9577C297.233 60.9577 296.774 61.0438 296.344 61.2302C295.928 61.4166 295.555 61.6604 295.254 61.9758C293.906 63.3381 293.906 65.5321 295.254 66.8943C295.57 67.2098 295.943 67.4679 296.344 67.64C296.774 67.8264 297.233 67.9125 297.692 67.9125C298.151 67.9125 298.61 67.8264 299.026 67.64C299.857 67.2815 300.517 66.6219 300.861 65.7902C301.047 65.36 301.134 64.9155 301.134 64.4279ZM300.417 64.4279C300.417 64.8438 300.345 65.2309 300.216 65.5751C300.087 65.9192 299.9 66.2347 299.657 66.4928C299.413 66.7509 299.126 66.9517 298.796 67.0951C298.466 67.2385 298.094 67.3102 297.678 67.3102C297.262 67.3102 296.889 67.2385 296.559 67.0951C296.229 66.9517 295.943 66.7509 295.699 66.4928C295.455 66.2347 295.269 65.9336 295.14 65.5751C295.011 65.2309 294.939 64.8438 294.939 64.4279C294.939 64.0121 295.011 63.6392 295.14 63.2808C295.269 62.9366 295.455 62.6211 295.699 62.363C295.943 62.1049 296.229 61.9041 296.559 61.7608C296.889 61.6174 297.262 61.5457 297.678 61.5457C298.065 61.5457 298.438 61.6174 298.796 61.7608C299.126 61.9041 299.413 62.1049 299.657 62.363C299.9 62.6355 300.087 62.9366 300.216 63.2808C300.359 63.6536 300.417 64.0408 300.417 64.4279ZM299.384 66.4641L298.237 64.7004C298.581 64.643 298.839 64.5426 299.011 64.3849C299.183 64.2272 299.269 63.9547 299.269 63.5675C299.269 63.1804 299.155 62.8792 298.94 62.6928C298.724 62.5064 298.352 62.4204 297.864 62.4204H296.344V66.4785H296.932V64.7291H297.635L298.71 66.4785H299.398L299.384 66.4641ZM298.065 64.1698C297.936 64.1698 297.807 64.1841 297.663 64.1841H296.932V62.9366H297.778C297.893 62.9366 298.022 62.9366 298.137 62.9366C298.237 62.9366 298.337 62.9796 298.423 63.0226L298.61 63.1947C298.667 63.2808 298.681 63.3955 298.681 63.4958C298.681 63.6249 298.667 63.754 298.61 63.8687L298.395 64.0694C298.294 64.1124 298.18 64.1411 298.079 64.1555L298.065 64.1698ZM287.081 69.6619L296 48.726H298.38V45.643H288.127V48.726H292.329L286.177 63.4528L279.925 48.726H284.127V45.643H273.243V48.726H275.623L284.069 67.597C283.725 68.2423 283.438 68.8875 283.209 69.5185C282.98 70.1638 282.721 70.7374 282.42 71.2536C282.119 71.7698 281.732 72.1713 281.244 72.4868C280.771 72.7879 280.112 72.9457 279.28 72.9457C278.864 72.9457 278.463 72.917 278.09 72.874C277.717 72.8309 277.344 72.7879 276.986 72.7592V75.7419C277.487 75.7992 277.989 75.8709 278.491 75.9283C278.979 75.9857 279.481 76.0287 279.997 76.0287C281.101 76.0287 282.033 75.8709 282.764 75.5698C283.467 75.283 284.098 74.8385 284.6 74.2649C285.131 73.6483 285.561 72.9743 285.905 72.243C286.292 71.4543 286.665 70.594 287.052 69.6619H287.081ZM263.32 63.9547C263.033 63.2664 262.89 62.4491 262.89 61.517V48.7117H270.002V45.6287H262.89V39.4626L258.975 40.8106V45.6287H254.731V48.7117H258.975V59.7819C258.975 60.843 259.018 61.9041 259.09 62.9653C259.161 63.9547 259.391 64.8294 259.749 65.5894C260.122 66.3494 260.71 66.9804 261.441 67.3962C262.201 67.8408 263.291 68.0702 264.682 68.0702C267.034 68.0702 268.683 67.4392 269.644 66.163C270.604 64.9011 271.078 63.123 271.078 60.843H267.737C267.737 61.2875 267.722 61.7607 267.694 62.2626C267.665 62.7215 267.564 63.1804 267.378 63.6106C267.22 63.9977 266.948 64.3419 266.618 64.6C266.288 64.8581 265.829 64.9872 265.256 64.9872C264.238 64.9872 263.592 64.643 263.306 63.9547H263.32ZM241.94 67.5826H253.397V64.4996H249.626V45.6287H241.94V48.7117H245.711V64.4996H241.94V67.5826ZM249.626 36.1072H245.137V40.6241H249.626V36.1072ZM240.506 33.5547L249.425 12.6189H251.805V9.53585H241.552V12.6189H245.754L239.602 27.3457L233.35 12.6189H237.552V9.53585H226.668V12.6189H229.048L237.494 31.4898C237.15 32.1064 236.863 32.7517 236.634 33.4113C236.433 34.0136 236.161 34.5872 235.845 35.1464C235.544 35.6626 235.157 36.0642 234.684 36.3796C234.211 36.6951 233.551 36.8385 232.734 36.8385C232.318 36.8385 231.916 36.8098 231.543 36.7668C231.156 36.7238 230.798 36.6808 230.439 36.6521V39.6347L231.945 39.8211C232.432 39.8928 232.934 39.9215 233.451 39.9215C234.569 39.9215 235.487 39.7638 236.218 39.4626C236.949 39.1615 237.566 38.7313 238.054 38.1577C238.584 37.5411 239.029 36.8672 239.373 36.1358C239.774 35.2898 240.161 34.4294 240.52 33.5547H240.506ZM217.218 26.9585V31.4898H224.947V28.4068H221.133V15.8309C221.133 14.4257 220.875 13.2785 220.344 12.3894C219.828 11.5004 219.111 10.8121 218.222 10.3245C217.333 9.82264 216.3 9.49283 215.124 9.32075C213.949 9.14868 212.715 9.06264 211.454 9.06264C210.306 9.06264 209.159 9.17736 208.041 9.42113C207.008 9.63623 206.019 10.0234 205.115 10.5683C204.255 11.0989 203.538 11.8302 203.022 12.6906C202.477 13.5653 202.176 14.6408 202.118 15.8883H206.32C206.392 15.114 206.578 14.483 206.922 13.9811C207.252 13.4792 207.668 13.0921 208.155 12.8196C208.7 12.5328 209.288 12.3464 209.905 12.2604C210.579 12.16 211.267 12.117 211.998 12.117C213.719 12.117 215.024 12.4468 215.913 13.1208C216.802 13.7947 217.247 15.0136 217.247 16.7774V18.0823H213.045C211.697 18.0823 210.349 18.1396 209.016 18.2543C207.625 18.3691 206.363 18.6558 205.216 19.1147C204.097 19.5592 203.122 20.2906 202.391 21.237C201.66 22.1834 201.301 23.4883 201.301 25.166C201.301 26.3849 201.545 27.4317 202.018 28.2921C202.477 29.1381 203.137 29.8694 203.925 30.4143C204.757 30.9736 205.689 31.3751 206.664 31.5902C207.711 31.834 208.772 31.9487 209.833 31.9487C211.583 31.9487 213.117 31.5472 214.436 30.7442C215.755 29.9411 216.659 28.6792 217.132 26.9442H217.232L217.218 26.9585ZM217.218 21.1796C217.218 22.1834 217.089 23.1872 216.817 24.1623C216.573 25.0513 216.143 25.8687 215.569 26.5857C214.981 27.2883 214.25 27.8619 213.418 28.2491C212.543 28.6649 211.497 28.88 210.292 28.88C209.704 28.88 209.131 28.8226 208.557 28.7079C208.012 28.6075 207.481 28.4068 207.008 28.1057C206.564 27.8189 206.191 27.4317 205.918 26.9728C205.632 26.4996 205.488 25.9117 205.488 25.166C205.488 24.1766 205.804 23.4023 206.42 22.8574C207.066 22.2981 207.84 21.8966 208.672 21.6815C209.575 21.4377 210.507 21.2943 211.439 21.2513C212.414 21.2083 213.246 21.1796 213.949 21.1796H217.247H217.218ZM207.524 45.6287H199.838V48.7117H203.61V64.4996H199.838V67.5826H212.013V64.4996H207.524V58.5343C207.524 57.3728 207.596 56.197 207.711 55.0355C207.826 53.8883 208.098 52.7698 208.543 51.7087C208.944 50.7336 209.604 49.8732 210.421 49.2136C211.253 48.554 212.343 48.2242 213.719 48.2242C214.149 48.2242 214.565 48.2528 214.981 48.2958C215.34 48.3389 215.698 48.3962 216.057 48.4679V45.2415C215.784 45.2128 215.512 45.1842 215.239 45.1698C214.952 45.1555 214.637 45.1411 214.278 45.1411C212.629 45.1411 211.181 45.557 209.962 46.3743C208.743 47.1917 207.955 48.4392 207.596 50.1026H207.496V45.6287H207.524ZM189.772 25.4098V12.6045H196.884V9.52151H189.772V3.36981L185.857 4.71774V9.53585H181.613V12.6189H185.857V23.6891C185.857 24.7502 185.9 25.8113 185.972 26.8725C186.058 27.8619 186.273 28.7366 186.646 29.4966C187.019 30.2566 187.607 30.8875 188.338 31.3034C189.098 31.7479 190.188 31.9774 191.579 31.9774C193.931 31.9774 195.58 31.3464 196.54 30.0702C197.487 28.8083 197.974 27.0302 197.974 24.7502H194.633C194.633 25.1947 194.619 25.6679 194.59 26.1698C194.561 26.6287 194.461 27.0875 194.275 27.5177C194.117 27.9049 193.844 28.2491 193.515 28.5072C193.185 28.7653 192.726 28.8943 192.152 28.8943C191.134 28.8943 190.489 28.5502 190.202 27.8619C189.915 27.1736 189.772 26.3706 189.772 25.4385V25.4098ZM180.724 45.9155C179.361 46.403 178.114 47.163 177.067 48.1811C176.035 49.1992 175.232 50.4324 174.73 51.7947C174.185 53.2143 173.912 54.806 173.912 56.6128C173.912 58.4196 174.185 60.0113 174.73 61.4309C175.275 62.8506 176.049 64.0551 177.067 65.0445C178.1 66.0483 179.347 66.8226 180.724 67.3102C182.143 67.8264 183.735 68.0845 185.528 68.0845C186.675 68.0845 187.851 67.9555 189.055 67.6974C190.217 67.4536 191.321 67.0377 192.353 66.4498C193.328 65.8762 194.16 65.1162 194.805 64.1841C195.451 63.2521 195.795 62.1192 195.823 60.7713H192.195C192.138 61.474 191.894 62.0906 191.478 62.6211C191.063 63.1517 190.546 63.6106 189.958 63.9404C189.356 64.2989 188.697 64.557 187.994 64.7291C187.291 64.9011 186.646 65.0015 186.044 65.0015C183.463 65.0015 181.498 64.4279 180.15 63.2664C178.802 62.1049 178.114 60.2694 178.114 57.7313H196.01C196.01 55.9675 195.823 54.3185 195.436 52.7985C195.049 51.2785 194.447 49.9449 193.629 48.8264C192.783 47.6936 191.679 46.7758 190.403 46.1592C189.084 45.4996 187.449 45.1698 185.513 45.1698C183.735 45.1698 182.129 45.4279 180.709 45.9442L180.724 45.9155ZM182.516 48.6543C183.377 48.3675 184.28 48.2242 185.241 48.2242C187.377 48.2242 189.012 48.7834 190.174 49.9019C191.335 51.0204 191.98 52.5977 192.109 54.6196H178.128C178.128 53.6302 178.315 52.7268 178.702 51.9238C179.089 51.1208 179.605 50.4468 180.251 49.9019C180.924 49.3426 181.684 48.9268 182.516 48.6543ZM177.87 12.1887C178.229 12.2317 178.587 12.2891 178.946 12.3608V9.13434C178.688 9.10566 178.415 9.07698 178.128 9.06264C177.841 9.0483 177.526 9.03396 177.182 9.03396C175.533 9.03396 174.084 9.44981 172.866 10.2672C171.647 11.0845 170.858 12.3321 170.5 13.9955H170.399V9.52151H162.713V12.6045H166.484V28.3925H162.713V31.4755H174.887V28.3925H170.399V22.4272C170.399 21.3087 170.471 20.1472 170.586 18.9426C170.7 17.7955 170.973 16.677 171.417 15.6158C171.819 14.6408 172.478 13.7804 173.31 13.1208C174.142 12.4611 175.232 12.1313 176.608 12.1313C177.024 12.1313 177.454 12.16 177.87 12.203V12.1887ZM160.62 48.6974H164.577L158.368 63.9117L152.446 48.6974H156.404V45.6143H145.706V48.6974H148.374L155.816 67.5683H160.591L168.277 48.6974H170.944V45.6143H160.591V48.6974H160.62ZM143.039 27.1306C141.691 25.9834 141.017 24.1336 141.017 21.5955H158.913C158.913 19.8317 158.727 18.1826 158.34 16.6626C157.952 15.1426 157.35 13.8091 156.533 12.6906C155.701 11.5721 154.626 10.683 153.306 10.0234C151.987 9.36377 150.352 9.03396 148.417 9.03396C146.638 9.03396 145.032 9.29208 143.627 9.8083C142.265 10.2958 141.017 11.0702 139.971 12.074C138.952 13.0634 138.178 14.2679 137.633 15.6875C137.088 17.0928 136.816 18.6989 136.816 20.5057C136.816 22.3125 137.088 23.9042 137.633 25.3238C138.135 26.686 138.938 27.9192 139.971 28.9374C141.017 29.9411 142.251 30.7155 143.627 31.203C145.047 31.7192 146.638 31.9774 148.417 31.9774C149.564 31.9774 150.74 31.8483 151.944 31.5902C153.106 31.3464 154.21 30.9306 155.242 30.3426C156.217 29.7691 157.049 29.0091 157.694 28.077C158.354 27.1449 158.684 26.0121 158.727 24.6642H155.099C155.041 25.3381 154.798 25.9834 154.382 26.514C153.966 27.0445 153.45 27.4891 152.847 27.8332C152.231 28.1917 151.571 28.4498 150.897 28.6219C150.195 28.794 149.549 28.88 148.947 28.88C146.366 28.88 144.401 28.3064 143.054 27.1449L143.039 27.1306ZM141.017 18.5125C141.017 17.523 141.204 16.6196 141.591 15.8166C141.949 15.0423 142.48 14.354 143.14 13.7947C143.814 13.2355 144.574 12.8196 145.405 12.5472C146.266 12.2604 147.169 12.117 148.13 12.117C150.266 12.117 151.901 12.6762 153.063 13.7947C154.224 14.9132 154.869 16.4906 154.998 18.5125H141.017ZM140.874 36.0785H136.386V40.5955H140.874V36.0785ZM140.874 45.6143H133.188V48.6974H136.959V64.4853H133.188V67.5683H144.645V64.4853H140.874V45.6143ZM131.854 25.1804C132.327 23.7894 132.571 22.2264 132.571 20.4913C132.571 18.7562 132.327 17.1358 131.84 15.7306C131.338 14.3253 130.635 13.1208 129.718 12.117C128.8 11.1275 127.667 10.3532 126.348 9.82264C125.029 9.29208 123.523 9.03396 121.845 9.03396C120.297 9.03396 118.777 9.43547 117.429 10.1955C116.755 10.5826 116.138 11.0558 115.593 11.6151C115.048 12.1743 114.618 12.8053 114.303 13.5223H114.202V0H106.473V3.08302H110.288V28.4068H106.473V31.4898H114.202V27.0158H114.303C114.546 27.8045 114.948 28.5358 115.493 29.1525C116.023 29.7691 116.64 30.2996 117.328 30.7155C118.691 31.5328 120.254 31.963 121.831 31.963C123.552 31.963 125.072 31.6906 126.405 31.1457C127.696 30.6294 128.843 29.8408 129.775 28.8083C130.678 27.7902 131.381 26.6 131.854 25.1947V25.1804ZM128.37 20.4913C128.37 21.7389 128.226 22.886 127.94 23.9042C127.653 24.9366 127.237 25.8113 126.678 26.5426C126.133 27.274 125.43 27.8475 124.627 28.2491C123.81 28.6506 122.892 28.8513 121.831 28.8513C120.526 28.8513 119.393 28.6506 118.447 28.2491C117.486 27.8475 116.697 27.274 116.066 26.5426C115.407 25.7683 114.934 24.8649 114.661 23.9042C114.36 22.8717 114.202 21.7389 114.202 20.4913C114.202 19.4302 114.346 18.3547 114.661 17.3366C114.948 16.3615 115.407 15.4581 116.052 14.6694C116.697 13.8808 117.5 13.2498 118.418 12.8196C119.364 12.3608 120.512 12.117 121.845 12.117C122.892 12.117 123.838 12.3464 124.656 12.8196C125.473 13.2785 126.176 13.9094 126.706 14.6694C127.266 15.4868 127.681 16.3902 127.94 17.3366C128.226 18.3404 128.37 19.4015 128.37 20.4913ZM91.8181 28.3925V31.4755H104.652V28.3925H101.225L89.3947 0H84.3901L72.4166 28.4068H68.9751V31.4898H81.3788V28.5502H76.5177L79.6151 21.0936H93.5962L96.6075 28.4068H91.8324L91.8181 28.3925ZM92.3486 17.9962H80.8913L86.6701 4.08679L92.3486 17.9962ZM49.5879 53.9743C55.5388 47.0626 59.2385 38.1864 59.1811 26.557V0.716981H0.00146877V26.5713C-0.084569 38.2008 3.61505 47.077 9.59468 53.9887C16.4347 61.7894 27.2324 67.0091 29.4981 68.2279H29.6845C31.9215 67.0091 42.7192 61.7894 49.5879 53.9887V53.9743ZM15.0007 57.7457C16.3917 55.4083 19.8045 49.0845 19.8045 43.1479C19.8045 33.5977 14.3124 28.7509 11.3154 26.8151H48.0249C45.0279 28.7509 39.5358 33.6121 39.5358 43.1479C39.5358 49.0128 42.8483 55.2362 44.2822 57.6453C38.8475 62.2196 32.7388 65.4174 30.0573 66.8226C29.8852 66.9087 29.7275 66.9947 29.5841 67.0664C29.5841 67.0664 29.326 66.923 29.1683 66.8513C26.5011 65.4604 20.4354 62.2913 15.0007 57.7457ZM1.04826 26.8151H9.03543C9.62336 27.0589 18.7003 31.0166 18.7003 43.1479C18.7003 48.6113 15.5313 54.6483 14.1403 57.0143C12.8068 55.8528 11.5449 54.6053 10.369 53.2717C4.07392 45.9872 1.01958 37.326 1.04826 26.8151ZM19.36 18.0106C19.1305 18.1253 18.8724 18.1826 18.6 18.1826C18.4709 18.1826 18.3418 18.1826 18.2271 18.1396C17.2234 17.9245 16.5781 16.9351 16.7788 15.9313C16.6784 15.9457 16.5637 15.96 16.4634 15.96C15.3592 15.96 14.4701 15.0566 14.4701 13.9525L14.4988 13.723H14.3268C13.1509 13.7374 12.2045 12.7909 12.2045 11.6008V11.5147H12.1901C11.2868 11.5147 10.5124 10.9842 10.1539 10.2098C9.79543 10.9842 9.02109 11.5147 8.11769 11.5147H8.08902V11.5864C8.08902 12.7623 7.1426 13.723 5.98109 13.723H5.80902V13.9381C5.82336 15.0423 4.9343 15.9457 3.84449 15.9457C3.72977 15.9457 3.62939 15.9313 3.52902 15.917C3.5577 16.046 3.57203 16.1608 3.57203 16.2898C3.57203 17.3223 2.74034 18.154 1.72222 18.1683C1.49279 18.1683 1.2777 18.1109 1.07694 18.0392V1.77811H19.36V18.0106ZM19.36 25.7683H1.04826V24.1336C1.30637 23.646 1.79392 23.3449 2.33883 23.3449C2.49656 23.3449 2.63996 23.3736 2.78336 23.4166C2.74034 23.2732 2.71166 23.1155 2.71166 22.9434C2.71166 22.0543 3.42864 21.3374 4.30336 21.3374L4.59015 21.366L4.56147 21.0506C4.56147 20.1042 5.32147 19.3298 6.25354 19.3298H6.41128V19.1577C6.39694 18.154 7.19996 17.3366 8.20373 17.3366H8.23241V17.2792C8.23241 16.2038 9.09279 15.3434 10.1539 15.3434C11.2151 15.3434 12.0898 16.2181 12.0754 17.2792V17.3366H12.1041C13.1079 17.3366 13.9252 18.154 13.9109 19.1577V19.3442H14.0543C14.9864 19.3298 15.7607 20.0898 15.7607 21.0506L15.732 21.366L16.0188 21.3374C16.8935 21.3374 17.6105 22.0543 17.6105 22.9434C17.6105 23.1155 17.5818 23.2732 17.5245 23.4166C17.6679 23.3736 17.8113 23.3449 17.969 23.3449C18.6143 23.3449 19.1879 23.7751 19.3743 24.406V25.754L19.36 25.7683ZM38.7184 14.0958L38.6611 14.0385V13.7517L29.5411 4.74641L20.4784 13.6943V1.77811H38.7328V14.0958H38.7184ZM38.7184 18.1109L38.6611 18.0536V17.7668L29.5411 8.76151L20.4784 17.7094V16.2898L29.5411 7.34189L38.6468 16.3185L38.6754 16.2898V15.5872L38.7328 15.6445V18.0966L38.7184 18.1109ZM38.7184 22.126L38.6611 22.0687V21.7819L29.5411 12.7766L20.4784 21.7245V20.3049L29.5411 11.357L38.6468 20.3336L38.6754 20.3049V19.6166L38.7328 19.674V22.126H38.7184ZM38.7184 25.7826H20.4641V24.3057L29.5268 15.3577L38.6324 24.3343L38.6611 24.3057V23.603L38.7184 23.6604V25.7683V25.7826ZM58.1343 25.7826H39.8226V1.77811H58.1343V25.7683V25.7826ZM58.1343 26.8294C58.1343 37.3404 55.0943 46.0015 48.7992 53.3004C47.652 54.5909 46.4332 55.7955 45.1426 56.9283C43.723 54.4906 40.64 48.554 40.64 43.1623C40.64 31.0309 49.7169 27.0732 50.3049 26.8294H58.1343ZM48.5124 44.4528C49.043 44.4528 49.4732 43.994 49.5592 43.363H53.6603V43.5925L53.7751 43.7072H54.0475L54.1622 43.5925V43.0045V36.6951L54.1335 36.5517C54.0762 36.4083 53.9615 36.2936 53.8181 36.2506H53.7607V35.9064H53.3735L53.1871 35.8347H53.1298L53.1728 35.3758H52.9864C52.6566 35.3758 52.3411 35.2181 51.9683 35.046C51.4807 34.8023 50.9071 34.5298 50.1185 34.5298H50.1041C49.1864 34.5298 48.7275 34.8453 48.5124 35.0891C48.2973 34.8453 47.8385 34.5298 46.9207 34.5298H46.9064C46.1177 34.5298 45.5584 34.8023 45.0566 35.046C44.6981 35.2181 44.3826 35.3758 44.0384 35.3758H43.852L43.8807 35.8204H43.8234L43.6369 35.8777H43.2211V36.2219H43.1924C43.049 36.2792 42.9343 36.3796 42.8769 36.5374L42.8483 36.6808V42.9758V43.5781L42.963 43.6928H43.2354L43.3501 43.5781V43.3487H47.4513C47.5517 43.9796 47.9675 44.4385 48.4981 44.4385L48.5124 44.4528ZM44.3252 41.083C44.3252 41.083 44.6264 41.1404 45.329 41.0257C45.8452 40.9396 46.3758 40.6672 47.0641 40.6672C47.1932 40.6672 47.3222 40.6672 47.4513 40.6958H47.5086L47.7954 40.7532H47.8671L48.0966 40.8249L48.2113 40.8536L48.3117 40.8823V41.8143L48.2686 41.7857L48.2256 41.757L48.1683 41.714L48.1109 41.6709L48.0392 41.6279L47.9675 41.5849L47.8815 41.5419L47.7954 41.4989L47.6807 41.4702L47.5947 41.4415L47.4513 41.4128H47.3509L47.1645 41.3698H47.0641C46.9637 41.3555 46.849 41.3411 46.7343 41.3411C45.3147 41.3411 44.569 42.1298 43.68 42.1728L43.6226 36.2792L43.9237 36.2075L44.3252 41.083ZM48.326 40.6815L48.2686 40.6385L48.1539 40.5381L48.0105 40.4664L47.8815 40.3947L47.6234 40.323L47.4943 40.2943C47.3509 40.2657 47.1788 40.2513 46.9924 40.2513H46.9064C46.7917 40.2513 46.6769 40.2657 46.5622 40.28L46.4045 40.323L46.1894 40.366L46.046 40.4091L45.8309 40.4808L45.7592 40.5094C45.4868 40.6385 45.2286 40.7675 44.9992 40.8823H44.9562L44.7984 40.9683L44.6837 41.0113L44.5547 41.04L44.4256 41.0687L44.2392 35.7487C44.5834 35.7057 44.8845 35.5479 45.2143 35.3902C45.6732 35.1608 46.1894 34.917 46.892 34.917C47.9675 34.917 48.2543 35.3902 48.2973 35.4906V40.6958L48.326 40.6815ZM52.7856 35.7487L52.6135 41.0687L52.4701 41.04L52.3411 41.0113L52.2264 40.9683L52.0686 40.9109H52.0256C51.7818 40.7819 51.5381 40.6385 51.2656 40.5238L51.1939 40.4951L50.9788 40.4234L50.8354 40.3804L50.6203 40.3374L50.4626 40.2943C50.3479 40.28 50.2332 40.2657 50.1185 40.2657H50.0324C49.846 40.2657 49.6739 40.2657 49.5305 40.3087L49.4158 40.3374L49.1577 40.4091L49.0286 40.4808L48.8852 40.5525L48.7705 40.6528L48.7132 40.6958V35.5192C48.7132 35.5192 48.9569 34.9313 50.1185 34.9313C50.8211 34.9313 51.3373 35.1894 51.7962 35.4045C52.126 35.5623 52.4415 35.72 52.7713 35.763L52.7856 35.7487ZM53.4309 36.2792L53.3735 42.1728C52.4845 42.1155 51.7388 41.3411 50.3192 41.3411C50.2045 41.3411 50.1041 41.3411 49.9894 41.3411H49.9034L49.7169 41.3698H49.6166L49.4732 41.4272L49.3871 41.4558L49.2724 41.4845L49.1864 41.5275L49.086 41.5706L49.0143 41.6136L48.9283 41.6566L48.8709 41.6996L48.8135 41.7426L48.7705 41.7713L48.7275 41.8V40.8679L48.8135 40.8392L48.9283 40.8106L49.1577 40.7532H49.2294L49.5162 40.6815H49.5735C49.7026 40.6528 49.8317 40.6528 49.9607 40.6528C50.649 40.6528 51.1796 40.9253 51.6958 41.0113C52.3984 41.126 52.6996 41.0687 52.6996 41.0687L53.1011 36.1932L53.4022 36.2649L53.4309 36.2792ZM48.5268 44.08C48.1396 44.08 47.8241 43.6498 47.8241 43.1192V42.9902H43.2354V36.6951L43.2785 36.6234L43.5796 42.1728H43.8377C44.1532 42.1728 44.4543 42.1728 44.7698 42.1155C45.3864 42.0294 46.003 41.757 46.8203 41.757C46.9637 41.757 47.0928 41.757 47.2362 41.7713H47.3509C47.4513 41.8 47.566 41.8143 47.6664 41.8287H47.7237L47.9675 41.886H48.0679L48.0966 41.9147L48.3117 41.9721C48.4264 42.0008 48.4981 42.0294 48.4981 42.0294H48.5268C48.5268 42.0294 48.5985 42.0008 48.7132 41.9721L48.9283 41.9147H48.9856L49.0717 41.886L49.3154 41.843H49.3728C49.4732 41.8143 49.5879 41.8 49.6883 41.7857H49.803C49.9464 41.757 50.0754 41.757 50.2188 41.757C51.0362 41.757 51.6528 42.0294 52.2694 42.1155C52.5705 42.1585 52.886 42.1872 53.2015 42.1872H53.4596L53.7607 36.6234L53.8037 36.6951V42.9615H49.2007V43.1049C49.2151 43.6498 48.9139 44.0657 48.5124 44.0657L48.5268 44.08ZM48.5268 43.7358C48.7275 43.7358 48.8996 43.4491 48.8996 43.1049C48.8996 42.7608 48.7275 42.474 48.5268 42.474C48.326 42.474 48.1539 42.7608 48.1539 43.1049C48.1539 43.4491 48.326 43.7358 48.5268 43.7358ZM52.3554 36.4943V36.1072C52.1834 36.0498 51.9969 35.9494 51.7962 35.8491L51.4951 35.7057V36.1215L51.6241 36.1932C51.8535 36.3223 52.0973 36.4226 52.3554 36.5087V36.4943ZM50.4769 36.5374C50.7924 36.5947 51.1079 36.7094 51.3947 36.8672V36.4513C51.1222 36.3223 50.8211 36.2219 50.4769 36.1645V36.5374ZM50.4052 35.7343C50.6347 35.763 50.8498 35.8204 51.0649 35.9064V35.5049C50.8641 35.4332 50.649 35.3902 50.4052 35.3615V35.7343ZM50.2905 36.9389V37.3117C50.5486 37.3404 50.8068 37.3977 51.0505 37.4981V37.0966C50.8211 37.0106 50.563 36.9675 50.2905 36.9389ZM50.3479 37.7419C50.2475 37.7419 50.1615 37.7132 50.0468 37.7132H49.9894V38.086H50.0468L50.3479 38.1147V37.7419ZM50.0468 36.4943H50.1041V36.1215H50.0468C49.6596 36.1215 49.3584 36.1789 49.129 36.2792V36.6808C49.3298 36.5804 49.6166 36.4943 50.0468 36.4943ZM50.0468 35.7057H50.1041V35.3328H50.0468C49.6596 35.3328 49.3584 35.3902 49.129 35.4906V35.8921C49.3298 35.7917 49.6166 35.7057 50.0468 35.7057ZM49.129 37.0823V37.4838C49.3154 37.3834 49.6022 37.3117 49.9894 37.2974V36.9245C49.6309 36.9245 49.3441 36.9962 49.129 37.0823ZM49.6309 37.7562C49.4445 37.7849 49.2724 37.8279 49.129 37.8709V38.2725C49.2868 38.2008 49.4588 38.1434 49.6309 38.1291V37.7562ZM49.129 38.674V39.0755C49.3298 38.9751 49.6022 38.9034 50.0037 38.8891V38.5162C49.6452 38.5162 49.3584 38.5736 49.129 38.674ZM49.129 39.4626V39.8641C49.3298 39.7638 49.6166 39.6921 50.0324 39.6921C50.2045 39.6921 50.3622 39.7064 50.5343 39.7494V39.3766C50.3766 39.3479 50.2188 39.3336 50.0324 39.3336C49.6596 39.3336 49.3584 39.3909 49.129 39.477V39.4626ZM50.1615 38.9034C50.3335 38.9034 50.52 38.9464 50.692 38.9894V38.6023C50.5343 38.5592 50.3479 38.5449 50.1615 38.5306V38.9034ZM51.3517 38.043C51.1652 37.957 50.9501 37.8853 50.7207 37.8279V38.2151C50.9358 38.2724 51.1509 38.3585 51.3517 38.4589V38.043ZM51.7675 39.8355C51.5381 39.7208 51.28 39.5917 51.0075 39.4913V39.8928C51.2083 39.9789 51.409 40.0649 51.6098 40.1653C51.8105 40.2657 52.0113 40.366 52.212 40.4377V40.0506C52.083 39.9932 51.9396 39.9215 51.7818 39.8355H51.7675ZM51.5954 39.3766C51.8105 39.477 52.0113 39.5917 52.2264 39.6634V39.2762C52.083 39.2189 51.9396 39.1328 51.7675 39.0468L51.5668 38.9464V39.3623H51.6098L51.5954 39.3766ZM51.7532 38.674C51.9109 38.76 52.083 38.8317 52.2551 38.8891V38.5019C52.1117 38.4445 51.9396 38.3585 51.7675 38.2725V38.674H51.7532ZM51.1222 39.1615L51.3517 39.2619V38.846L51.1222 38.7457V39.1472V39.1615ZM51.5954 37.7992C51.8105 37.914 52.04 38.0143 52.2694 38.1004V37.7132C52.1117 37.6558 51.9396 37.5698 51.7532 37.4694C51.5954 37.3834 51.4234 37.2974 51.2369 37.2257V37.6272C51.3517 37.6845 51.4664 37.7419 51.5811 37.7992H51.5954ZM51.5954 37.0106C51.8249 37.1396 52.0543 37.24 52.2981 37.3117V36.9245C52.1403 36.8672 51.9539 36.7668 51.7532 36.6664L51.5524 36.566V36.9819H51.5954V37.0106ZM47.8958 35.9494V35.5479C47.6664 35.4619 47.3652 35.3902 46.9781 35.3902H46.9207V35.763H46.9781C47.4083 35.763 47.6951 35.8491 47.8958 35.9494ZM46.9781 37.7706C46.8634 37.7706 46.7773 37.7849 46.6769 37.7992V38.1721C46.7773 38.1721 46.8634 38.1434 46.9781 38.1434H47.0354V37.7849H46.9781V37.7706ZM46.7343 37.3691V36.9962C46.4475 37.0249 46.1894 37.0679 45.9743 37.154V37.5555C46.2037 37.4551 46.4475 37.3977 46.7343 37.3691ZM45.9743 35.9781C46.1894 35.8921 46.4045 35.8347 46.6196 35.806V35.4332C46.3901 35.4619 46.1607 35.5192 45.9743 35.5766V35.9781ZM45.6301 36.5087V36.9245C45.9169 36.7668 46.2324 36.6664 46.5479 36.5947V36.2219C46.2037 36.2792 45.9026 36.3796 45.6301 36.5087ZM45.4151 36.2362L45.5441 36.1645V35.7487L45.243 35.8921C45.0422 36.0068 44.8415 36.0928 44.6694 36.1502V36.5374C44.9418 36.4657 45.1856 36.3509 45.4151 36.2219V36.2362ZM45.243 36.6951C45.0422 36.7955 44.8701 36.8958 44.6837 36.9532V37.3404C44.9418 37.2687 45.1856 37.154 45.4007 37.0392H45.4437V36.6091L45.243 36.7094V36.6951ZM45.243 37.4838C45.0566 37.5841 44.8845 37.6702 44.7124 37.7275V38.1147C44.9562 38.043 45.1713 37.9283 45.4007 37.8136C45.5154 37.7562 45.6301 37.6989 45.7449 37.6415V37.24C45.5728 37.3117 45.4007 37.3977 45.2286 37.4838H45.243ZM45.243 38.2725C45.0709 38.3585 44.8988 38.4445 44.7411 38.5019V38.8891C44.9132 38.8317 45.0852 38.76 45.243 38.674V38.2581V38.2725ZM45.243 39.0755C45.0709 39.1615 44.9132 39.2475 44.7698 39.3049V39.6921C44.9992 39.6204 45.2 39.52 45.4007 39.4053H45.4437V38.9751L45.243 39.0755ZM45.243 39.8641C45.0852 39.9502 44.9418 40.0219 44.7984 40.0792V40.4664C45.0135 40.3947 45.2143 40.2943 45.4151 40.194C45.6015 40.0936 45.8022 39.9932 46.0173 39.9215V39.52C45.7305 39.6204 45.4868 39.7494 45.2573 39.8641H45.243ZM45.8883 39.1758V38.7743L45.6588 38.8747V39.2906L45.8883 39.1902V39.1758ZM45.6588 38.4875C45.8596 38.3872 46.0747 38.3011 46.2754 38.2438V37.8566C46.046 37.914 45.8452 37.9857 45.6588 38.0717V38.4875ZM46.849 38.5736C46.6626 38.5736 46.4762 38.6023 46.3185 38.6453V39.0325C46.4905 38.9894 46.6626 38.9608 46.849 38.9464V38.5736ZM46.4905 39.4053V39.7781C46.6483 39.7494 46.806 39.7208 46.9924 39.7208C47.4083 39.7208 47.6951 39.7924 47.8958 39.8928V39.4913C47.4513 39.3336 46.9637 39.3049 46.4905 39.3909V39.4053ZM47.8958 39.1185V38.717C47.6807 38.6309 47.3939 38.5736 47.0211 38.5592V38.9321C47.4226 38.9321 47.6951 39.0181 47.8958 39.1185ZM47.3939 38.1721C47.566 38.2008 47.7381 38.2438 47.8958 38.3155V37.914C47.7524 37.8566 47.5803 37.8136 47.3939 37.7992V38.1721ZM47.8958 37.5268V37.1253C47.6807 37.0392 47.3939 36.9819 47.0354 36.9675V37.3404C47.4226 37.3404 47.6951 37.4264 47.8958 37.5268ZM47.8958 36.7381V36.3366C47.6664 36.2506 47.3652 36.1789 46.9781 36.1789H46.9207V36.5517H46.9781C47.4083 36.5517 47.6951 36.6234 47.8958 36.7381ZM41.6581 4.74641H40.9411L42.6475 7.06943L43.1064 7.15547L43.3788 7.19849L43.3215 6.82566C42.8196 6.79698 42.4181 6.38113 42.4181 5.85057L42.4611 5.66415C42.0166 5.60679 41.6581 5.21962 41.6581 4.76075V4.74641ZM44.0671 7.6717C43.7086 7.6717 43.3645 7.62868 43.0347 7.57132L44.0671 9.01962L45.0996 7.57132C44.7554 7.62868 44.4113 7.6717 44.0671 7.6717ZM44.3109 15.7162C44.1962 15.8596 43.9668 16.2468 44.3109 16.677C44.7554 17.2075 45.5154 16.3328 45.7449 16.2181C45.7449 16.2181 46.4045 16.72 47.0641 16.1464L47.2505 15.9313C47.3366 15.7592 47.3079 15.5442 47.3366 15.3434C47.3796 15.0709 47.2505 14.6694 47.1502 14.6838C47.0354 14.6838 46.72 14.9992 46.6483 15.243C46.5766 15.4868 46.3902 15.9313 46.2037 15.874C46.0173 15.8023 46.132 15.5442 46.1894 15.3577C46.2324 15.1857 46.2037 15.0279 46.1034 14.9992C46.003 14.9562 45.8309 15.5728 45.7018 15.7162C45.5728 15.8596 45.5728 15.7736 45.4007 15.7162C45.243 15.6589 45.0422 15.9313 44.9992 15.9743C44.9562 16.0174 44.9418 16.003 44.7267 15.7162C44.569 15.5011 44.3826 15.6302 44.2822 15.7162H44.3109ZM46.2468 19.7887H45.4437L47.3509 22.3985L47.8671 22.4989C47.9675 22.5132 48.0679 22.5275 48.1826 22.5419L48.1109 22.126C47.5517 22.083 47.0928 21.6242 47.0928 21.0362L47.1358 20.8211C46.6339 20.7494 46.2468 20.3336 46.2468 19.803V19.7887ZM50.1185 22.9577H47.7954V24.5781H50.1185V22.9577ZM50.0324 22.4989L50.5486 22.3985L52.4558 19.7887H51.6528C51.6528 20.3049 51.2656 20.7351 50.7494 20.8068L50.7924 21.0219C50.7924 21.5955 50.3479 22.0687 49.7743 22.1117L49.7169 22.5275L50.0324 22.4845V22.4989ZM51.6241 13.4649C51.6241 13.4649 52.4271 13.9238 52.6709 14.1102L52.7856 14.1389L52.929 14.0672L52.886 13.8091C52.6135 13.6083 51.8392 13.1638 51.7962 13.1351L51.5524 13.2068L51.6241 13.4649ZM52.972 14.2106C52.5132 14.6981 52.6135 15.5298 53.2158 16.1034H53.2301C53.2301 16.1034 53.3592 16.0174 53.4739 15.8883C53.4739 15.8883 53.7464 15.5585 54.0332 15.2574C54.32 14.9562 54.6354 14.6694 54.6354 14.6694C54.7788 14.5404 54.8792 14.4257 54.8649 14.4113H54.8505C54.2483 13.8091 53.4309 13.7374 52.9577 14.2106H52.972ZM53.603 15.9887L53.5026 16.1034L53.56 16.1608C54.0905 16.677 54.8218 16.7774 55.1947 16.3902C55.5675 16.003 55.4528 15.2574 54.9222 14.7411L54.8649 14.6838L54.7501 14.7842C54.7501 14.7842 54.4347 15.0566 54.1479 15.3577C53.8611 15.6589 53.5886 15.9743 53.5886 15.9743L53.603 15.9887ZM55.252 7.08377L56.9585 4.76075H56.2415C56.2415 5.21962 55.8973 5.60679 55.4384 5.66415L55.4815 5.85057C55.4815 6.36679 55.08 6.78264 54.5781 6.82566L54.5207 7.19849L54.7932 7.15547L55.252 7.06943V7.08377ZM54.0762 7.25585L54.7358 2.98264H52.9003L53.56 7.25585H54.0762ZM52.169 5.86491L52.212 5.67849C51.7532 5.60679 51.409 5.23396 51.409 4.77509H50.692L52.3985 7.09811L52.8573 7.18415L53.1298 7.22717L53.0724 6.85434C52.5705 6.82566 52.169 6.40981 52.169 5.87924V5.86491ZM50.8068 7.24151C50.8068 7.24151 50.6347 7.24151 50.4483 7.29887C50.4483 7.29887 50.0181 7.42792 49.5879 7.49962C49.1577 7.58566 48.7132 7.64302 48.7132 7.64302C48.5124 7.6717 48.3547 7.70038 48.369 7.72906C48.5411 8.61811 49.2151 9.1917 49.889 9.0483C50.5773 8.90491 50.9788 8.13057 50.8068 7.25585V7.22717V7.24151ZM50.4052 7.12679L50.563 7.08377V6.99774C50.4052 6.23774 49.8173 5.69283 49.2581 5.80755C48.6988 5.92226 48.369 6.63925 48.5124 7.39924L48.5411 7.48528L48.6988 7.4566C48.6988 7.4566 49.129 7.41358 49.5592 7.32755C49.9894 7.24151 50.4052 7.12679 50.4052 7.12679ZM48.0679 9.75094C48.0679 9.75094 48.4264 9.59321 48.24 9.1917C48.0535 8.79019 47.7094 8.86189 47.7094 8.86189C47.8385 7.47094 47.3509 7.25585 47.0928 7.27019C46.8347 7.28453 46.5479 7.41358 46.5766 7.91547C46.6052 8.41736 46.8347 8.68981 46.8347 8.68981L46.5622 8.66113C46.5622 8.66113 45.9169 8.36 45.7735 8.9766C45.6301 9.59321 46.4332 10.1094 46.4332 10.1094C46.4332 10.1094 46.0747 10.0664 46.1464 11.0128C46.1894 11.7585 46.8203 11.9162 47.0785 11.9449C47.0785 11.7728 47.0785 11.6151 47.1502 11.4574L47.3079 11.1992C47.3079 11.1992 47.4369 11.0702 47.3509 10.8838C47.2649 10.6974 47.2075 10.4966 46.8777 10.4249C46.5479 10.3532 46.6339 10.2815 46.6339 10.2385L46.9924 10.1811L47.1358 10.0808C47.1358 10.0808 46.6913 9.8083 46.4618 9.49283C46.2324 9.16302 46.3185 9.23472 46.3328 9.22038C46.3328 9.1917 46.5909 9.40679 46.7343 9.40679C46.8777 9.40679 46.9924 9.44981 47.0211 9.16302C47.0498 8.87623 47.1071 8.47472 47.1071 8.47472L47.1932 8.31698C47.1932 8.31698 47.1932 9.29208 47.2218 9.39245C47.2362 9.50717 47.2935 9.46415 47.3652 9.43547L47.7094 9.1917C47.7094 9.1917 47.523 9.70792 47.523 9.82264C47.523 9.93736 47.5803 9.9517 47.6664 9.96604L48.0105 10.0377L48.0679 10.1094C48.0679 10.1094 47.5373 10.3245 47.5086 10.5109C47.4943 10.6974 47.5803 10.8694 47.7668 10.8121H47.8098C47.9818 10.7404 48.1826 10.683 48.3977 10.683C48.5984 10.683 48.8135 10.726 49 10.7977L48.9569 10.5683C48.7992 9.82264 48.0679 9.76528 48.0679 9.76528V9.75094ZM48.0249 15.3577C48.283 15.2717 48.5841 15.0136 48.6845 14.2679C48.7132 14.0528 48.6845 13.8664 48.6701 13.7087C48.5124 13.7804 48.283 13.9094 48.0679 14.0958C47.7381 14.3826 47.5947 14.6838 47.609 15.0996C47.6234 15.4438 47.9245 15.4008 48.0249 15.3721V15.3577ZM49.2437 22.5849L49.9751 17.7955H47.9245L48.6558 22.5849H49.2294H49.2437ZM51.9539 16.4475C51.4377 14.526 50.8641 13.4649 50.4339 12.8913C50.3192 13.1208 50.1328 13.3072 49.9177 13.4362C50.2762 13.9525 50.7781 14.9132 51.2369 16.634C51.28 16.7917 51.4234 16.9064 51.5954 16.9064H51.6958C51.8966 16.8347 52.0113 16.634 51.9539 16.4332V16.4475ZM51.7245 12.6906L51.8679 12.7336C51.7245 12.6045 51.5237 12.4755 51.3086 12.4468C50.8784 12.3894 50.8211 12.3751 50.7924 12.6045C50.8211 12.7909 50.8784 12.9487 50.9788 13.1064L51.1366 13.2785L51.2083 13.006C51.3086 12.8196 51.5094 12.7049 51.7245 12.7049V12.6906ZM49.6883 9.49283H49.6452L49.6883 9.66491C49.76 10.0377 49.8747 10.554 49.9607 11.0558L50.2332 11.3283C50.3479 11.1562 50.5056 11.0272 50.692 10.9268C50.5917 10.4106 50.4913 9.89434 50.4052 9.50717L50.3622 9.30641C50.2475 9.36377 50.1185 9.42113 49.9751 9.44981L49.6883 9.47849V9.49283ZM48.7419 12.074C48.8852 11.7298 48.9856 11.357 48.9856 11.357L49.0286 11.2279L48.9569 11.1992C48.3403 10.9555 47.6951 11.1275 47.5086 11.5864C47.3222 12.0453 47.6807 12.6189 48.2973 12.8626L48.369 12.8913L48.4264 12.7623C48.5411 12.5328 48.6415 12.3034 48.7275 12.074H48.7419ZM49.129 11.4143C49.129 11.4143 49.0143 11.7872 48.8709 12.1313C48.7275 12.4898 48.5554 12.834 48.5554 12.834C48.4837 12.9917 48.4407 13.1208 48.4551 13.1208H48.4694C49.172 13.4075 49.889 13.1925 50.1041 12.6189C50.3192 12.0596 49.9464 11.4 49.2581 11.1132H49.2437C49.2437 11.1132 49.172 11.2279 49.1147 11.3857L49.129 11.4143ZM52.4558 9.98038V9.92302C52.5562 9.43547 52.3411 8.9766 51.9826 8.90491C51.6241 8.83321 51.2513 9.17736 51.1509 9.67924V9.7366L51.2369 9.76528C51.2369 9.76528 51.5094 9.83698 51.7818 9.89434C51.9683 9.92302 52.1547 9.9517 52.3411 9.98038H52.4415H52.4558ZM52.5705 10.1525C52.5705 10.1525 52.4701 10.1094 52.3411 10.0951C52.3411 10.0951 52.0543 10.0664 51.7675 10.0091C51.4951 9.9517 51.2083 9.88 51.2083 9.88C51.0935 9.85132 50.9788 9.83698 50.9788 9.83698C50.8784 10.4106 51.1366 10.9125 51.5811 10.9985C52.0256 11.0845 52.4558 10.7117 52.5562 10.1525H52.5705ZM53.8181 9.0483L54.8505 7.6C54.5064 7.65736 54.1622 7.70038 53.8181 7.70038C53.4739 7.70038 53.1154 7.65736 52.7856 7.6L53.8181 9.0483ZM51.9109 11.5291C52.0256 11.5291 51.8249 11.8158 51.9109 12.0023C51.9969 12.1887 52.2407 12.2317 52.6422 12.0023C53.0437 11.7728 53.1728 11.7298 53.2015 11.7728L53.1154 12.0596C53.1154 12.16 53.0581 12.3751 53.3305 12.3608C53.6173 12.3608 54.0905 12.3177 54.0905 12.4325C54.0905 12.5472 53.7034 12.6619 53.4739 12.6045C53.2445 12.5472 52.9577 12.4898 52.9434 12.5328L53.0724 12.8913L53.1441 13.1064C53.1441 13.1064 52.8143 12.834 52.4701 12.6762C52.126 12.5328 51.9252 12.4181 51.8822 12.5328L51.9826 12.7623C52.3698 12.9774 52.7426 13.2211 53.1011 13.4649L53.2015 13.5796L53.3162 13.5366C53.4022 13.4219 53.5169 13.3215 53.6603 13.3072C54.1049 13.2498 54.6211 13.7087 54.8362 12.6762C55.0513 11.6438 53.6317 11.9736 53.4596 11.8302C53.2875 11.7011 53.4309 11.3713 52.8573 11.1562C52.2837 10.9411 51.9826 11.5004 51.9826 11.5004C51.9826 11.5004 51.9826 11.4 51.2656 11.2566C50.5486 11.1132 50.3049 11.9879 50.3049 11.9879L50.4769 12.1457C50.4769 12.1457 50.7207 12.3321 51.2226 12.0453C51.7388 11.7585 51.7675 11.5004 51.7675 11.5004H51.8535L51.9109 11.5291ZM45.2286 13.1208C45.2286 13.4792 45.1856 13.723 44.9849 14.0385C44.7985 14.3253 44.4973 14.3396 44.3826 14.8989C44.3109 15.1426 44.5117 15.3577 44.7124 15.4725C44.9132 15.5872 45.1856 15.4725 45.4007 15.286C45.6015 15.0996 45.3003 14.9562 45.243 14.8989C45.2 14.8558 45.1426 14.8128 45.3147 14.7125C45.4868 14.6121 46.1034 14.6121 46.4188 14.4687C46.7343 14.3253 46.4188 14.1532 46.3041 14.0958C46.2037 14.0385 46.0603 13.9238 46.1177 13.7947C46.1894 13.6657 46.5766 13.68 47.0068 13.7517C47.4369 13.8377 47.8098 13.7804 48.0679 13.6657C48.2543 13.594 48.2113 13.4649 48.1683 13.3932V13.3645H48.1396L48.0822 13.2211C47.5803 12.9917 47.2362 12.6045 47.1071 12.1887C46.8634 12.1026 46.5909 12.0453 46.3041 12.0596C45.1283 12.1457 45.243 12.7479 45.243 13.1064L45.2286 13.1208ZM45.5011 7.09811L47.2075 4.77509H46.4905C46.4905 5.23396 46.1464 5.62113 45.6875 5.67849L45.7305 5.86491C45.7305 6.38113 45.329 6.79698 44.8128 6.84L44.7554 7.21283L45.0279 7.16981L45.4867 7.08377L45.5011 7.09811ZM44.3252 7.27019L44.9849 2.99698H43.1494L43.809 7.27019H44.3252ZM5.24977 24.0475C5.24977 24.0475 5.82336 23.8611 6.18185 23.4309C6.02411 23.7464 5.82336 24.1049 5.5509 24.3917C5.5509 24.3917 6.05279 24.1192 6.32524 23.517C6.2392 23.8468 6.09581 24.2196 5.86637 24.5208C5.86637 24.5208 6.22486 24.363 6.39694 23.7894L6.48298 24.8219L6.56902 23.7894C6.74109 24.363 7.09958 24.5208 7.09958 24.5208C6.87015 24.2196 6.72675 23.8468 6.64071 23.517C6.91317 24.1192 7.41505 24.3917 7.41505 24.3917C7.1426 24.1049 6.94185 23.7608 6.78411 23.4309C7.15694 23.8611 7.71619 24.0475 7.71619 24.0475C6.78411 23.4166 6.48298 22.6423 6.48298 22.6423C6.48298 22.6423 6.18185 23.4166 5.24977 24.0475ZM7.77354 21.2226L9.23619 22.2981L8.67694 24.0332L10.1396 22.9577L11.6022 24.0332L11.043 22.2981L12.5056 21.2226H10.6988L10.1396 19.4875L9.58034 21.2226H7.77354ZM12.5773 24.0475C12.5773 24.0475 13.1509 23.8611 13.5094 23.4309C13.3517 23.7464 13.1509 24.1049 12.8784 24.3917C12.8784 24.3917 13.3803 24.1192 13.6528 23.517C13.5668 23.8468 13.4234 24.2196 13.1939 24.5208C13.1939 24.5208 13.5524 24.363 13.7245 23.7894L13.8105 24.8219L13.8966 23.7894C14.0686 24.363 14.4271 24.5208 14.4271 24.5208C14.1977 24.2196 14.0543 23.8468 13.9683 23.517C14.2407 24.1192 14.7426 24.3917 14.7426 24.3917C14.4701 24.1049 14.2694 23.7608 14.1117 23.4309C14.4845 23.8611 15.0437 24.0475 15.0437 24.0475C14.1117 23.4166 13.8105 22.6423 13.8105 22.6423C13.8105 22.6423 13.5094 23.4166 12.5773 24.0475ZM14.1547 22.9577C14.1547 23.1011 14.2981 23.2158 14.4415 23.2015C14.5849 23.2015 14.6996 23.0581 14.6852 22.9147C14.6852 22.7713 14.5705 22.6423 14.4128 22.6423C14.2694 22.6423 14.1403 22.7713 14.1403 22.9147C14.1403 22.9147 14.1403 22.9434 14.1403 22.9577H14.1547ZM13.5381 22.2408C13.5381 22.3842 13.6528 22.5132 13.8105 22.5132C13.9539 22.5132 14.083 22.3842 14.083 22.2408C14.083 22.0974 13.9683 21.9683 13.8105 21.9683C13.6528 21.9683 13.5381 22.0974 13.5381 22.2408ZM12.8784 22.9577C12.8784 23.1011 13.0218 23.2158 13.1652 23.2015C13.3086 23.2015 13.4234 23.0581 13.409 22.9147C13.409 22.7713 13.2943 22.6423 13.1366 22.6423C12.9932 22.6423 12.8641 22.7713 12.8641 22.9147C12.8641 22.9147 12.8641 22.9434 12.8641 22.9577H12.8784ZM10.4407 17.4657C10.8135 17.8958 11.3728 18.0823 11.3728 18.0823C10.4407 17.4513 10.1396 16.677 10.1396 16.677C10.1396 16.677 9.82411 17.4513 8.90637 18.0823C8.90637 18.0823 9.47996 17.8958 9.83845 17.4657C9.68071 17.7811 9.47996 18.1396 9.20751 18.4264C9.20751 18.4264 9.70939 18.154 9.98185 17.5517C9.89581 17.8815 9.75241 18.24 9.52298 18.5555C9.52298 18.5555 9.88147 18.3977 10.0535 17.8242L10.1396 18.8566L10.2256 17.8242C10.3977 18.3977 10.7562 18.5555 10.7562 18.5555C10.5268 18.2543 10.3834 17.8815 10.2973 17.5517C10.5698 18.154 11.0717 18.4264 11.0717 18.4264C10.7992 18.1396 10.5984 17.7955 10.4407 17.4657ZM10.7562 17.2219C10.8996 17.2219 11.0286 17.0928 11.0286 16.9494C11.0286 16.806 10.9139 16.677 10.7562 16.677C10.6128 16.677 10.4837 16.806 10.4837 16.9494C10.4837 17.0928 10.5984 17.2219 10.7562 17.2219ZM9.86713 16.2611C9.86713 16.4045 9.98185 16.5336 10.1396 16.5336C10.283 16.5336 10.412 16.4045 10.412 16.2611C10.412 16.1034 10.2973 15.9887 10.1396 15.9887C9.99619 15.9887 9.86713 16.1177 9.86713 16.2611ZM9.47996 17.2219C9.62336 17.2219 9.75241 17.0928 9.75241 16.9494C9.75241 16.806 9.6377 16.677 9.47996 16.677C9.33656 16.677 9.20751 16.806 9.20751 16.9494C9.20751 17.0928 9.32222 17.2219 9.47996 17.2219ZM7.08524 23.1872C7.24298 23.1872 7.3577 23.0581 7.3577 22.9147C7.3577 22.7713 7.22864 22.6423 7.08524 22.6423C6.94185 22.6423 6.81279 22.7713 6.81279 22.9147C6.81279 23.0581 6.92751 23.1872 7.08524 23.1872ZM6.4543 22.4845C6.59769 22.4845 6.72675 22.3842 6.74109 22.2408C6.74109 22.2408 6.74109 22.2121 6.74109 22.1977C6.74109 22.0543 6.59769 21.9396 6.4543 21.954C6.3109 21.954 6.19619 22.0974 6.21053 22.2408C6.21053 22.3698 6.32524 22.4845 6.4543 22.4845ZM5.5509 22.9577C5.5509 23.1011 5.6943 23.2158 5.8377 23.2015C5.98109 23.2015 6.09581 23.0581 6.08147 22.9147C6.08147 22.7713 5.96675 22.6423 5.80902 22.6423C5.66562 22.6423 5.53656 22.7713 5.53656 22.9147C5.53656 22.9147 5.53656 22.9434 5.53656 22.9577H5.5509ZM17.4384 3.84302C17.8113 4.27321 18.3705 4.45962 18.3705 4.45962C17.4384 3.82868 17.1373 3.05434 17.1373 3.05434C17.1373 3.05434 16.8218 3.82868 15.9041 4.45962C15.9041 4.45962 16.4777 4.27321 16.8362 3.84302C16.6928 4.15849 16.4777 4.51698 16.2052 4.80377C16.2052 4.80377 16.7071 4.53132 16.9796 3.92906C16.8935 4.25887 16.7501 4.6317 16.5207 4.93283C16.5207 4.93283 16.8792 4.77509 17.0513 4.20151L17.1373 5.23396L17.2234 4.20151C17.3954 4.77509 17.7539 4.93283 17.7539 4.93283C17.5245 4.6317 17.3811 4.25887 17.2951 3.92906C17.5675 4.53132 18.0694 4.80377 18.0694 4.80377C17.7969 4.51698 17.5962 4.17283 17.4384 3.84302ZM17.4815 3.32679C17.4815 3.47019 17.5962 3.59925 17.7539 3.59925C17.8973 3.59925 18.0264 3.47019 18.0264 3.32679C18.0264 3.1834 17.9117 3.05434 17.7539 3.05434C17.6105 3.05434 17.4815 3.1834 17.4815 3.32679ZM16.2052 3.32679C16.2052 3.47019 16.32 3.59925 16.4777 3.59925C16.6211 3.59925 16.7501 3.47019 16.7501 3.32679C16.7501 3.1834 16.6354 3.05434 16.4777 3.05434C16.3343 3.05434 16.2052 3.1834 16.2052 3.32679ZM17.08 5.66415H15.2732L14.7139 3.92906L14.1547 5.66415H12.3479L13.8105 6.73962L13.2513 8.47472L14.7139 7.39924L16.1766 8.47472L15.6173 6.73962L17.08 5.66415ZM15.4166 11.8589C15.4166 12.0166 15.5456 12.1313 15.689 12.1313C15.8324 12.1313 15.9615 12.0023 15.9615 11.8589C15.9615 11.7155 15.8324 11.5864 15.689 11.5864C15.5456 11.5864 15.4166 11.7155 15.4166 11.8589ZM16.3486 11.443C16.5064 11.443 16.6211 11.314 16.6211 11.1706C16.6211 11.0272 16.492 10.8981 16.3486 10.8981C16.2052 10.8981 16.0762 11.0272 16.0762 11.1706C16.0762 11.314 16.1909 11.443 16.3486 11.443ZM16.6928 11.8589C16.6928 12.0166 16.8218 12.1313 16.9652 12.1313C17.1086 12.1313 17.2377 12.0023 17.2377 11.8589C17.2377 11.7155 17.1086 11.5864 16.9652 11.5864C16.8218 11.5864 16.6928 11.7155 16.6928 11.8589ZM15.1154 12.9917C15.1154 12.9917 15.689 12.8053 16.0475 12.3751C15.9041 12.6906 15.689 13.0491 15.4166 13.3358C15.4166 13.3358 15.9184 13.0634 16.1909 12.4611C16.0905 12.8196 15.9328 13.1638 15.732 13.4649C15.732 13.4649 16.0905 13.3072 16.2626 12.7336L16.3486 13.766L16.4347 12.7336C16.6068 13.3072 16.9652 13.4649 16.9652 13.4649C16.7358 13.1638 16.5924 12.7909 16.5064 12.4611C16.7788 13.0634 17.2807 13.3358 17.2807 13.3358C17.0083 13.0491 16.8075 12.7049 16.6498 12.3751C17.0226 12.8053 17.5818 12.9917 17.5818 12.9917C16.6498 12.3608 16.3486 11.5864 16.3486 11.5864C16.3486 11.5864 16.0332 12.3608 15.1154 12.9917ZM10.4407 6.99774C10.8135 7.42792 11.3728 7.61434 11.3728 7.61434C10.4407 6.9834 10.1396 6.20906 10.1396 6.20906C10.1396 6.20906 9.82411 6.9834 8.90637 7.61434C8.90637 7.61434 9.47996 7.42792 9.83845 6.99774C9.68071 7.31321 9.47996 7.6717 9.20751 7.95849C9.20751 7.95849 9.70939 7.68604 9.98185 7.08377C9.89581 7.44226 9.73807 7.78641 9.52298 8.08755C9.52298 8.08755 9.88147 7.92981 10.0535 7.35623L10.1396 8.38868L10.2256 7.35623C10.3977 7.92981 10.7562 8.08755 10.7562 8.08755C10.5411 7.78641 10.3834 7.44226 10.2973 7.08377C10.5698 7.68604 11.0717 7.95849 11.0717 7.95849C10.7992 7.6717 10.5984 7.32755 10.4407 6.99774ZM10.7562 6.75396C10.8996 6.75396 11.0286 6.62491 11.0286 6.48151C11.0286 6.33811 10.9139 6.20906 10.7562 6.20906C10.6128 6.20906 10.4837 6.33811 10.4837 6.48151C10.4837 6.62491 10.5984 6.75396 10.7562 6.75396ZM10.1396 6.06566C10.283 6.06566 10.412 5.95094 10.412 5.79321C10.412 5.64981 10.2973 5.52075 10.1396 5.52075C9.98185 5.52075 9.86713 5.64981 9.86713 5.79321C9.86713 5.9366 9.98185 6.06566 10.1396 6.06566ZM9.20751 6.48151C9.20751 6.62491 9.32222 6.75396 9.47996 6.75396C9.62336 6.75396 9.75241 6.62491 9.75241 6.48151C9.75241 6.35245 9.6377 6.23774 9.50864 6.23774C9.36524 6.23774 9.23619 6.33811 9.22185 6.48151H9.20751ZM6.46864 6.75396L7.93128 5.67849H6.12449L5.56524 3.9434L5.006 5.67849H3.1992L4.66185 6.75396L4.1026 8.48906L5.56524 7.41358L7.02788 8.48906L6.46864 6.75396ZM3.45732 3.84302C3.83015 4.27321 4.38939 4.45962 4.38939 4.45962C3.45732 3.82868 3.15619 3.05434 3.15619 3.05434C3.15619 3.05434 2.84071 3.82868 1.92298 4.45962C1.92298 4.45962 2.49656 4.27321 2.85505 3.84302C2.69732 4.15849 2.49656 4.51698 2.22411 4.80377C2.22411 4.80377 2.726 4.53132 2.99845 3.92906C2.89807 4.25887 2.76902 4.6317 2.53958 4.93283C2.53958 4.93283 2.89807 4.77509 3.07015 4.20151L3.15619 5.23396L3.24222 4.20151C3.4143 4.77509 3.77279 4.93283 3.77279 4.93283C3.54336 4.6317 3.39996 4.25887 3.31392 3.92906C3.58637 4.53132 4.08826 4.80377 4.08826 4.80377C3.81581 4.51698 3.61505 4.17283 3.45732 3.84302ZM3.77279 3.59925C3.93053 3.59925 4.04524 3.47019 4.04524 3.32679C4.04524 3.16906 3.91619 3.05434 3.77279 3.05434C3.62939 3.05434 3.50034 3.1834 3.50034 3.32679C3.50034 3.47019 3.61505 3.59925 3.77279 3.59925ZM2.22411 3.32679C2.22411 3.47019 2.33883 3.59925 2.49656 3.59925C2.63996 3.59925 2.76902 3.47019 2.76902 3.32679C2.76902 3.1834 2.6543 3.05434 2.49656 3.05434C2.35317 3.05434 2.22411 3.1834 2.22411 3.32679ZM3.2709 11.5864C3.12751 11.5864 2.99845 11.7155 2.99845 11.8589C2.99845 11.8589 2.99845 11.8875 2.99845 11.9019C2.99845 12.0453 3.14185 12.16 3.28524 12.1457C3.42864 12.1313 3.54336 12.0023 3.52902 11.8589C3.52902 11.7155 3.4143 11.5864 3.25656 11.5864H3.2709ZM3.65807 11.1706C3.65807 11.314 3.77279 11.443 3.93053 11.443C4.08826 11.443 4.20298 11.314 4.20298 11.1706C4.20298 11.0272 4.07392 10.8981 3.93053 10.8981C3.78713 10.8981 3.65807 11.0272 3.65807 11.1706ZM4.27468 11.8589C4.27468 12.0166 4.40373 12.1313 4.54713 12.1313C4.69053 12.1313 4.81958 12.0023 4.81958 11.8589C4.81958 11.7155 4.69053 11.5864 4.54713 11.5864C4.40373 11.5864 4.27468 11.7155 4.27468 11.8589ZM2.69732 12.9917C2.69732 12.9917 3.2709 12.8053 3.62939 12.3751C3.47166 12.6906 3.2709 13.0491 2.99845 13.3358C2.99845 13.3358 3.50034 13.0634 3.77279 12.4611C3.68675 12.7909 3.54336 13.1638 3.31392 13.4649C3.31392 13.4649 3.67241 13.3072 3.84449 12.7336L3.93053 13.766L4.01656 12.7336C4.18864 13.3072 4.54713 13.4649 4.54713 13.4649C4.3177 13.1638 4.1743 12.7909 4.08826 12.4611C4.36071 13.0634 4.8626 13.3358 4.8626 13.3358C4.59015 13.0491 4.38939 12.7049 4.23166 12.3751C4.60449 12.8053 5.16373 12.9917 5.16373 12.9917C4.23166 12.3608 3.93053 11.5864 3.93053 11.5864C3.93053 11.5864 3.61505 12.3608 2.69732 12.9917ZM5.22109 36.5374L5.19241 36.6808V42.9758V43.5781L5.30713 43.6928H5.57958L5.6943 43.5781V43.3487H9.79543C9.89581 43.9796 10.3117 44.4385 10.8422 44.4385C11.3728 44.4385 11.803 43.9796 11.889 43.3487H15.9901V43.5781L16.1049 43.6928H16.3773L16.492 43.5781V42.9902V36.5374C16.4203 36.394 16.3056 36.2792 16.1622 36.2362H16.1049V35.8921H15.7177L15.5313 35.8204H15.4739L15.5169 35.3615H15.3305C15.0007 35.3615 14.6852 35.2038 14.3124 35.0317C13.8105 34.7879 13.2513 34.5155 12.4626 34.5155H12.4483C11.5305 34.5155 11.0717 34.8309 10.8566 35.0747C10.6415 34.8309 10.1826 34.5155 9.26486 34.5155H9.25052C8.46185 34.5155 7.9026 34.7879 7.40071 35.0317C7.04222 35.2038 6.72675 35.3615 6.3826 35.3615H6.19619L6.2392 35.806H6.18185L5.99543 35.8634H5.57958V36.2075H5.53656C5.39317 36.2649 5.27845 36.3653 5.22109 36.523V36.5374ZM6.65505 41.0687C6.65505 41.0687 6.95619 41.126 7.65883 41.0113C8.17505 40.9253 8.70562 40.6528 9.39392 40.6528C9.52298 40.6528 9.65203 40.6528 9.78109 40.6815H9.83845L10.1252 40.7389H10.1969L10.4264 40.8106L10.5411 40.8392L10.6415 40.8679V41.8L10.5984 41.7713L10.5554 41.7426L10.4837 41.6996L10.4264 41.6566L10.3547 41.6136L10.283 41.5706L10.1826 41.5275L10.0966 41.4845L9.98185 41.4558L9.88147 41.4272L9.73807 41.3985H9.63769L9.45128 41.3555H9.3509C9.25053 41.3411 9.13581 41.3268 9.02109 41.3268C7.60147 41.3268 6.84147 42.1155 5.96675 42.1585L5.90939 36.2649L6.21053 36.1932L6.61203 41.0687H6.65505ZM10.6701 35.5192V40.6672L10.5984 40.6241L10.4837 40.5238L10.3403 40.4521L10.2113 40.3804L9.95317 40.3087L9.82411 40.28C9.68071 40.2513 9.50864 40.237 9.32222 40.237H9.23619C9.12147 40.237 9.00675 40.2513 8.89203 40.2657L8.7343 40.3087L8.5192 40.3517L8.39015 40.3947L8.18939 40.4664L8.11769 40.4951C7.84524 40.6241 7.58713 40.7532 7.3577 40.8679H7.31468L7.15694 40.954L7.04222 40.997L6.91317 41.0257L6.76977 41.0543L6.58336 35.7343C6.92751 35.6913 7.24298 35.5336 7.55845 35.3758C8.01732 35.1464 8.53354 34.9026 9.23619 34.9026C10.3977 34.9026 10.6415 35.4619 10.6558 35.4906V35.5192H10.6701ZM15.1154 35.7343L14.9434 41.0543L14.8 41.0257L14.6709 40.997L14.5562 40.954L14.3984 40.8966H14.3554C14.1117 40.7675 13.8679 40.6241 13.5954 40.5094L13.5237 40.4808L13.3086 40.4091L13.1652 40.366L12.9501 40.323L12.7924 40.28C12.6777 40.2657 12.563 40.2513 12.4483 40.2513H12.3622C12.1758 40.2513 12.0037 40.2513 11.8603 40.2943L11.7313 40.323L11.4732 40.3947L11.3441 40.4664L11.2007 40.5381L11.086 40.6385L11.0286 40.6815V35.4762C11.0717 35.3902 11.3584 34.917 12.4339 34.9026C13.1366 34.9026 13.6528 35.1608 14.1117 35.3758C14.4415 35.5336 14.7569 35.6913 15.0868 35.7343H15.1154ZM15.7607 36.2649L15.7034 42.1585C14.8143 42.1011 14.0686 41.3268 12.649 41.3268C12.5343 41.3268 12.4196 41.3268 12.3192 41.3268H12.2188L12.0324 41.3555H11.932L11.7886 41.4128L11.7026 41.4415L11.5879 41.4702L11.5018 41.5132L11.4015 41.5562L11.3298 41.5992L11.2581 41.6423L11.2007 41.6853L11.129 41.7283L11.086 41.757L11.043 41.7857V40.8536L11.129 40.8249L11.2437 40.7962L11.4732 40.7389H11.5449L11.8317 40.6672H11.889C12.0181 40.6385 12.1471 40.6385 12.2762 40.6385C12.9645 40.6385 13.4951 40.9109 14.0113 40.997C14.7139 41.1117 15.0151 41.0543 15.0151 41.0543L15.4166 36.1789L15.7177 36.2506L15.7607 36.2649ZM5.57958 36.6951L5.63694 36.6234L5.93807 42.1728H6.19619C6.51166 42.1728 6.81279 42.1728 7.12826 42.1155C7.74486 42.0294 8.36147 41.757 9.17883 41.757C9.32222 41.757 9.45128 41.757 9.59468 41.7713H9.70939C9.80977 41.8 9.92449 41.8143 10.0249 41.8287H10.0822L10.326 41.886H10.4264L10.4551 41.9147L10.6701 41.9721C10.7849 42.0008 10.8566 42.0294 10.8566 42.0294H10.8852C10.8852 42.0294 10.9569 42.0008 11.0717 41.9721L11.2868 41.9147H11.3441L11.4158 41.886L11.6596 41.843H11.7169C11.8173 41.8143 11.9177 41.8 12.0324 41.7857H12.1471C12.2762 41.757 12.4196 41.757 12.563 41.757C13.3803 41.757 13.9969 42.0294 14.6135 42.1155C15.0437 42.1728 15.3449 42.1872 15.5456 42.1872H15.8037L16.1049 36.6234L16.1479 36.6951V42.9615H11.5449V43.1049C11.5592 43.6498 11.2581 44.0657 10.8566 44.0657C10.4551 44.0657 10.1539 43.6355 10.1539 43.1049V42.9758H5.5509V36.6808L5.57958 36.6951ZM10.8709 42.474C10.6701 42.474 10.4981 42.7608 10.4981 43.1049C10.4981 43.4491 10.6701 43.7358 10.8709 43.7358C11.0717 43.7358 11.2294 43.4491 11.2294 43.1049C11.2294 42.7608 11.0573 42.474 10.8709 42.474ZM14.6996 36.4943V36.1072C14.5275 36.0498 14.3411 35.9494 14.1403 35.8491L13.8392 35.7057V36.1215L13.9683 36.1932C14.1977 36.3223 14.4415 36.4226 14.6996 36.5087V36.4943ZM12.8211 36.5374C13.1366 36.5947 13.452 36.7094 13.7388 36.8672V36.4513C13.452 36.3079 13.1366 36.2219 12.8211 36.1645V36.5374ZM12.7494 35.7343C12.9788 35.763 13.1939 35.8204 13.409 35.9064V35.5049C13.2083 35.4332 12.9932 35.3902 12.7494 35.3615V35.7343ZM12.6347 36.9389V37.3117C12.8928 37.3404 13.1509 37.3977 13.3947 37.4981V37.0966C13.1652 37.0106 12.9071 36.9675 12.6347 36.9389ZM12.692 37.7419L12.3909 37.7132H12.3335V38.086H12.3909L12.692 38.1147V37.7419ZM12.3909 36.4943H12.4483V36.1215H12.3909C12.0037 36.1215 11.7026 36.1789 11.4732 36.2792V36.6808C11.6739 36.5804 11.9607 36.4943 12.3909 36.4943ZM12.3909 35.7057H12.4483V35.3328H12.3909C12.0037 35.3328 11.7026 35.3902 11.4732 35.4906V35.8921C11.6739 35.7917 11.9607 35.7057 12.3909 35.7057ZM11.4732 37.0823V37.4838C11.6596 37.3834 11.9464 37.3117 12.3335 37.2974V36.9245C11.9751 36.9245 11.7026 36.9962 11.4732 37.0823ZM11.9751 37.7562C11.803 37.7849 11.6309 37.8136 11.4732 37.8709V38.2725C11.6309 38.2008 11.803 38.1434 11.9751 38.1291V37.7562ZM11.4732 38.674V39.0755C11.7456 38.9464 12.0468 38.8891 12.3479 38.8891V38.5162C11.9894 38.5162 11.7026 38.5736 11.4732 38.674ZM11.4732 39.4626V39.8641C11.6739 39.7638 11.9607 39.6921 12.3766 39.6921C12.5486 39.6921 12.7064 39.7064 12.8784 39.7494V39.3766C12.7207 39.3479 12.563 39.3336 12.3766 39.3336C11.9894 39.3336 11.7026 39.3909 11.4732 39.477V39.4626ZM12.5056 38.9034C12.692 38.9034 12.8641 38.9464 13.0362 38.9894V38.6023C12.8784 38.5592 12.692 38.5449 12.5056 38.5306V38.9034ZM13.6958 38.043C13.5094 37.957 13.2943 37.8853 13.0649 37.8279V38.2151C13.28 38.2724 13.4951 38.3585 13.6958 38.4589V38.043ZM14.1117 39.8355C13.8822 39.7208 13.6384 39.5917 13.3517 39.4913V39.8928C13.5524 39.9789 13.7532 40.0649 13.9396 40.1653C14.1403 40.2657 14.3411 40.366 14.5418 40.4377V40.0506C14.4128 39.9932 14.2694 39.9215 14.1117 39.8355ZM13.9396 39.3766C14.1403 39.4913 14.3554 39.5774 14.5705 39.6634V39.2762C14.4271 39.2189 14.2837 39.1328 14.1117 39.0468L13.9109 38.9464V39.3623H13.9539L13.9396 39.3766ZM14.0973 38.674C14.2551 38.76 14.4271 38.8317 14.5992 38.8891V38.5019C14.4558 38.4445 14.2837 38.3585 14.1117 38.2725V38.674H14.0973ZM13.4664 39.1615L13.6958 39.2619V38.846L13.4664 38.7457V39.1472V39.1615ZM13.9396 37.7992C14.1547 37.914 14.3841 38.0143 14.6135 38.1004V37.7132C14.4558 37.6558 14.2837 37.5698 14.0973 37.4694C13.9396 37.3834 13.7675 37.2974 13.5811 37.2257V37.6272C13.6958 37.6845 13.8105 37.7419 13.9252 37.7992H13.9396ZM13.9396 37.0106C14.169 37.1396 14.3984 37.24 14.6422 37.3117V36.9245C14.4845 36.8672 14.2981 36.7668 14.0973 36.6664L13.8966 36.566V36.9819H13.9396V37.0106ZM10.24 35.9494V35.5479C9.95317 35.4332 9.6377 35.3758 9.32222 35.3902H9.26486V35.763H9.32222C9.75241 35.763 10.0392 35.8491 10.24 35.9494ZM9.32222 37.7706C9.22185 37.7706 9.12147 37.7849 9.02109 37.7992V38.1721L9.32222 38.1434H9.37958V37.7849H9.32222V37.7706ZM9.07845 37.3691V36.9962C8.79166 37.0249 8.54788 37.0679 8.31845 37.154V37.5555C8.54788 37.4551 8.79166 37.3977 9.07845 37.3691ZM8.31845 35.9781C8.53354 35.8921 8.74864 35.8347 8.96373 35.806V35.4332C8.7343 35.4619 8.50486 35.5192 8.31845 35.5766V35.9781ZM7.9743 36.5087V36.9245C8.26109 36.7668 8.57656 36.6664 8.89203 36.5947V36.2219C8.54788 36.2792 8.23241 36.3796 7.9743 36.5087ZM7.7592 36.2362L7.88826 36.1645V35.7487L7.58713 35.8921C7.40071 35.9925 7.2143 36.0785 7.01354 36.1502V36.5374C7.286 36.4657 7.52977 36.3509 7.7592 36.2219V36.2362ZM7.58713 36.6951C7.41505 36.7955 7.22864 36.8815 7.02788 36.9532V37.3404C7.286 37.2687 7.52977 37.154 7.74486 37.0392H7.78788V36.6091L7.58713 36.7094V36.6951ZM7.58713 37.4838C7.40071 37.5841 7.22864 37.6702 7.05656 37.7275V38.1147C7.30034 38.043 7.52977 37.9283 7.74486 37.8136C7.85958 37.7562 7.9743 37.6989 8.08902 37.6415V37.24C7.9026 37.326 7.73053 37.3977 7.57279 37.4838H7.58713ZM7.58713 38.2725C7.41505 38.3585 7.24298 38.4445 7.08524 38.5019V38.8891C7.25732 38.8317 7.42939 38.76 7.60147 38.674V38.2581L7.58713 38.2725ZM7.58713 39.0755C7.41505 39.1615 7.27166 39.2475 7.11392 39.3049V39.6921C7.34336 39.6204 7.55845 39.52 7.7592 39.4053H7.80222V38.9751L7.60147 39.0755H7.58713ZM7.58713 39.8641C7.42939 39.9502 7.286 40.0219 7.1426 40.0792V40.4664C7.3577 40.3947 7.55845 40.2943 7.7592 40.194C7.94562 40.0936 8.14637 39.9932 8.34713 39.9215V39.52C8.06034 39.6204 7.81656 39.7494 7.58713 39.8641ZM8.23241 39.1758V38.7743L8.00298 38.8747V39.2906L8.23241 39.1902V39.1758ZM8.00298 38.4875C8.20373 38.3872 8.41883 38.3011 8.61958 38.2438V37.8566C8.39015 37.914 8.18939 37.9857 8.00298 38.0717V38.4875ZM9.19317 38.5736C9.00675 38.5736 8.83468 38.6023 8.6626 38.6453V39.0325C8.83468 38.9894 9.00675 38.9608 9.19317 38.9464V38.5736ZM9.33656 39.3623C9.16449 39.3623 8.99241 39.3766 8.83468 39.4053V39.7781C8.99241 39.7494 9.15015 39.7208 9.33656 39.7208C9.75241 39.7208 10.0392 39.7924 10.2256 39.8928V39.4913C9.99619 39.4053 9.70939 39.3479 9.33656 39.3479V39.3623ZM10.24 39.1185V38.717C10.0249 38.6309 9.73807 38.5736 9.36524 38.5592V38.9321C9.76675 38.9321 10.0392 39.0181 10.24 39.1185ZM9.75241 38.1721C9.92449 38.2008 10.0966 38.2438 10.2543 38.3155V37.914C10.1109 37.8566 9.93883 37.8136 9.75241 37.7992V38.1721ZM10.2543 37.5268V37.1253C10.0392 37.0392 9.75241 36.9819 9.39392 36.9675V37.3404C9.69505 37.3404 9.98185 37.3977 10.2543 37.5268ZM10.2543 36.7381V36.3366C10.0249 36.2506 9.72373 36.1789 9.33656 36.1789H9.2792V36.5517H9.33656C9.76675 36.5517 10.0535 36.6234 10.2543 36.7381ZM19.6611 36.3796C19.6611 36.6234 19.8618 36.8242 20.1056 36.8242C20.2634 36.8242 20.4211 36.7238 20.4928 36.5804C20.7796 36.5517 21.0807 36.5517 21.3675 36.6091C21.3101 36.4083 21.2815 36.1932 21.2958 35.9781V35.9494C20.923 35.9494 20.6362 36.0642 20.4784 36.1358C20.4068 36.0068 20.2777 35.9208 20.12 35.9208C19.8762 35.9208 19.6754 36.1215 19.6754 36.3653L19.6611 36.3796ZM19.9766 37.3977C19.9766 37.6415 20.1773 37.8423 20.4211 37.8423C20.6075 37.8423 20.7652 37.7275 20.8369 37.5555C21.052 37.5125 21.2528 37.4981 21.4679 37.4981C21.3962 37.7849 21.1524 38 20.9803 38.1291L20.7939 38.086C20.5501 38.086 20.3494 38.2868 20.3494 38.5306C20.3494 38.7743 20.5501 38.9751 20.7939 38.9751C21.0377 38.9751 21.2384 38.7743 21.2384 38.5306L21.2098 38.3728C21.3962 38.2151 21.5969 38.0717 21.812 37.957C21.8837 38.1004 21.9411 38.3298 21.7403 38.6166C21.5683 38.8604 21.4679 39.0755 21.4105 39.2619C21.2384 39.3192 21.1094 39.4913 21.1094 39.6777C21.1094 39.9215 21.3101 40.1223 21.5539 40.1366C21.726 40.1366 21.8694 40.0506 21.9554 39.8928C22.0701 39.6777 21.9841 39.4053 21.769 39.2906C21.8551 38.9608 22.0271 38.5879 22.4143 38.4445H22.443C22.443 38.3155 22.4573 38.2151 22.5003 38.1004L22.529 38.0143C22.2422 37.9283 21.8837 37.6558 21.4966 36.9532L21.4105 36.7524C20.9947 36.9962 20.6505 36.9962 20.6505 36.9962L20.4211 36.9245C20.1773 36.9245 19.9766 37.1253 19.9766 37.3691V37.3977ZM24.5366 52.4113C24.5366 52.4113 23.8339 53.7019 24.9811 56.4551C26.1283 59.2226 27.2611 60.5419 27.2611 61.0581C27.2611 61.5743 26.5441 62.3917 26.5441 63.08C26.5441 63.7683 27.9064 63.9547 29.326 63.9547C30.7456 63.9547 32.1079 63.7683 32.1079 63.08C32.1079 62.3917 31.3909 61.56 31.3909 61.0581C31.3909 60.5562 32.5094 59.2226 33.6709 56.4551C34.8181 53.6875 34.1154 52.4113 34.1154 52.4113C36.3954 49.4574 36.3381 47.6792 35.0045 46.5464C33.6852 45.4136 32.3947 45.9872 31.7207 46.6611C30.9607 47.4211 30.2294 47.4211 30.2294 47.4211H28.4226C28.4226 47.4211 27.7056 47.4211 26.9313 46.6611C26.2573 45.9872 24.9524 45.4136 23.6475 46.5464C22.3283 47.6792 22.2566 49.4574 24.5366 52.4113ZM31.0324 48.4536C31.1041 48.3245 31.2045 48.2242 31.3192 48.1668L31.563 48.0377C31.563 48.0377 32.1079 47.6792 32.3947 47.3925C32.5094 47.2777 32.8966 46.9336 33.3984 46.9336C33.6996 46.9336 34.0151 47.0626 34.3162 47.3351C34.6317 47.6075 35.3486 48.2385 34.3879 50.1026C34.2732 50.2747 33.9864 50.6045 33.4845 50.2891L31.4483 48.9555C31.2045 48.7977 30.9034 48.7117 31.0181 48.4536H31.0324ZM24.3071 47.3351C24.6226 47.077 24.9237 46.9336 25.2249 46.9336C25.7268 46.9336 26.1139 47.2921 26.2286 47.3925C26.5154 47.6792 27.0603 48.0377 27.0603 48.0377L27.3184 48.1668C27.4475 48.2385 27.5479 48.3389 27.6052 48.4536C27.7343 48.726 27.4188 48.8121 27.1751 48.9555L25.1388 50.2891C24.6369 50.6045 24.3501 50.2891 24.2354 50.1026C23.2747 48.2385 23.9917 47.6075 24.3071 47.3351ZM37.1411 39.8068C37.1411 39.8068 38.0301 39.606 38.0015 38.5019C37.9728 37.3834 37.1984 37.7132 37.2988 37.283C37.3992 36.8385 38.6324 37.8423 39.5358 35.9351C39.6362 35.72 38.8905 34.917 38.1879 34.8883C37.5569 34.8596 37.0981 35.1034 37.0837 34.9887C37.0551 34.7736 38.1879 34.4725 37.8151 33.0815C37.4279 31.6906 36.1517 32.5509 36.1517 32.5509C36.1517 32.5509 37.1984 33.7125 36.5101 34.5728C35.8075 35.4332 33.9864 35.2468 33.5418 36.0498C33.4271 36.2506 33.4558 36.7238 33.4558 36.7238C33.5132 37.4551 33.929 37.4981 34.7894 37.5268C35.6641 37.5555 37.6717 37.7849 37.1268 39.8068H37.1411ZM33.4128 34.3004C33.4128 34.3004 33.5992 33.5117 32.8105 33.0385C32.0218 32.5653 31.8784 32.6513 31.5343 32.7517C31.1901 32.8521 31.1184 33.1819 31.3049 33.6981C31.4769 34.2143 31.6777 35.0174 32.5667 34.7306C33.4558 34.4438 33.4271 34.3004 33.4271 34.3004H33.4128ZM32.7962 32.5509C33.3984 31.6762 32.8966 30.8445 32.7675 30.5434C32.6241 30.2136 32.3947 29.5826 32.3947 29.5826C32.3947 29.5826 32.4234 29.7404 31.52 29.9268C30.9177 30.0558 30.6739 30.3857 30.5592 30.6008C30.7456 30.6581 30.8747 30.8158 30.8747 31.0166V31.074C30.7886 31.4898 30.846 31.7623 30.9464 31.9774C31.4483 31.16 31.3479 30.7442 31.3479 30.7442C31.3479 30.5004 31.5486 30.2996 31.7924 30.2996C32.0362 30.2996 32.2369 30.5004 32.2369 30.7442C32.2369 30.9019 32.1509 31.0453 32.0075 31.1313C31.4626 31.4898 31.4769 31.9917 31.563 32.3215C31.6777 32.2785 31.8068 32.2641 31.9215 32.2641C32.1652 32.2641 32.4234 32.3502 32.8105 32.5653L32.7962 32.5509ZM30.4875 34.243C30.6883 33.4257 30.2294 33.1675 30.172 33.1962C29.9426 33.2966 29.6128 33.2679 28.9245 32.9811C28.2362 32.6943 27.849 32.9094 28.2362 34.0423C28.4226 34.6158 28.8528 35.0747 29.3977 35.3185C29.5698 34.9457 29.8566 34.8166 30.0717 34.7162C30.1864 34.6589 30.3011 34.6015 30.4015 34.5155L30.4875 34.2574V34.243ZM30.3011 31.4325C30.3011 31.4325 30.2294 31.4325 30.1864 31.4181C29.9569 31.3464 29.8279 31.1026 29.8996 30.8732C29.9713 30.6438 30.2151 30.5147 30.4445 30.5864H30.5305L30.3584 30.5147C28.9245 29.9555 27.1034 30.6725 27.1034 30.6725C27.4618 31.3894 28.0928 32.1208 28.3939 32.4649H28.4513C28.6664 32.4649 28.8671 32.5079 29.0679 32.594C29.4551 32.7517 29.7418 32.8377 29.8996 32.8377H29.9856L30.0717 32.7804H30.1864C29.8422 32.1494 29.326 32.0921 29.326 32.0921H29.2256C28.9818 32.0921 28.7811 31.8913 28.7811 31.6475C28.7811 31.4038 28.9818 31.203 29.2256 31.203C29.412 31.203 29.5698 31.3177 29.6271 31.5041C29.7992 31.7909 30.1577 32.0347 30.5018 32.2355C30.4732 31.8626 30.3728 31.6045 30.2868 31.4325H30.3011ZM26.3003 35.3185V35.5909C26.329 35.9208 26.243 36.2506 26.0709 36.5374L25.9562 36.7381C26.1283 36.48 26.4294 36.1932 26.96 35.9925L27.089 35.9638C26.8166 35.7487 26.5298 35.5336 26.286 35.3328L26.3003 35.3185ZM22.9879 37.9283C22.9879 37.9283 23.3177 38.4158 23.92 38.1004C24.3215 37.8853 24.2068 37.4694 24.0777 37.154C23.7335 36.8672 23.5328 36.3509 23.8339 35.634L23.6332 35.6626C23.3751 35.7057 23.1026 35.7343 22.7728 35.7343H22.6151C22.3139 35.7343 22.1418 36.0355 22.1275 36.0498L21.9698 36.3366C21.9698 36.3366 21.9411 36.7381 22.1275 37.0679C22.6294 38 23.0022 37.914 23.0022 37.914L22.9879 37.9283ZM28.4226 46.8045H29.5698V45.7721C29.5554 45.4566 29.369 44.2808 27.7917 43.9366C25.7267 43.4921 24.5366 44.5962 24.5366 44.5962C24.5366 44.5962 25.5977 44.4241 26.9456 44.754C27.9064 44.9977 28.0498 46.0732 28.0641 46.6898C28.1788 46.7472 28.3079 46.7758 28.4226 46.7902V46.8045ZM29.7562 44.9547C29.9569 44.6966 30.172 44.4528 30.4158 44.2377C30.6739 43.7932 30.9034 43.3343 31.0898 42.8611C31.4769 41.7857 31.7064 41.1977 31.7064 41.1977C31.7064 41.1977 30.889 41.04 29.2543 44.2521C29.4694 44.4528 29.6271 44.6966 29.7562 44.9547ZM34.7894 44.9977C34.7894 44.9977 33.4415 43.6785 31.7637 44.0083C30.889 44.1804 30.2581 44.9117 29.9139 45.4136C29.9426 45.5283 29.9569 45.6287 29.9569 45.7434V46.7902H30.2007C30.2724 46.7902 30.3441 46.7615 30.4158 46.7472C30.4445 46.0302 30.6309 45.4136 31.5486 45.0264C33.0543 44.3811 34.7607 44.9834 34.7607 44.9834L34.7894 44.9977ZM33.4271 41.1977C32.7245 41.5706 32.1079 42.0725 31.5917 42.6891C31.5486 42.7894 31.52 42.9041 31.4769 43.0045C31.3909 43.234 31.2618 43.5064 31.1185 43.7932C31.3049 43.7072 31.4913 43.6355 31.692 43.5925C31.8641 43.5638 32.0362 43.5494 32.1939 43.5494C33.1547 42.3306 33.4271 41.1977 33.4271 41.1977ZM27.132 36.3653C26.4151 36.6377 26.2143 37.0679 26.1713 37.3117C26.2717 37.3117 26.372 37.283 26.4867 37.283C27.132 37.283 27.9351 37.5698 28.1215 38.9751L28.1501 39.1902C28.4226 39.2906 28.6807 39.4196 28.9101 39.5774C28.9532 39.4483 28.9962 39.3192 29.0392 39.1902C29.5124 38.0717 29.5411 37.4408 29.24 37.1253C28.9388 36.8098 28.1932 35.9638 27.132 36.3653ZM27.2754 40.7102C28.0498 41.0974 28.6377 41.7713 28.9245 42.5887C29.0105 42.8468 29.1396 43.0906 29.326 43.2913C29.5554 42.8755 29.8135 42.4596 30.1003 42.0725L30.0143 41.714C29.7705 40.8966 29.1969 39.9358 27.7486 39.477C26.3003 39.0181 25.6837 38.6166 25.6837 38.6166C26.0135 39.5917 26.4868 40.3087 27.2898 40.7245L27.2754 40.7102ZM27.8777 43.5351C28.2505 43.6068 28.609 43.7645 28.9245 43.9653L28.7524 43.6068C26.8022 40.28 24.68 41.3555 24.68 41.3555C24.68 41.3555 24.723 41.7713 25.612 42.474C26.5011 43.1909 27.132 42.7608 27.132 42.7608C27.4762 42.8038 27.72 43.2053 27.849 43.5064H27.892L27.8777 43.5351ZM25.6694 37.7562C25.1818 37.6989 25.44 36.6234 25.44 36.6234C25.44 36.6234 25.2535 36.8672 25.1101 37.0679C24.9811 37.2687 24.5939 37.3547 24.68 37.9857C24.7373 38.4302 25.0958 38.9177 25.5117 39.3049C25.4256 39.1185 25.3396 38.9464 25.2822 38.7313L25.0241 37.7419L25.8845 38.2581C25.8845 38.2581 26.4581 38.6166 27.7056 39.0181C27.4618 37.1683 26.1283 37.7849 25.6551 37.7419L25.6694 37.7562ZM30.129 37.197C30.889 36.7094 31.1328 35.8491 31.1328 35.8347L31.3622 35.003C31.2762 34.5872 31.0468 34.2574 31.0468 34.2574C30.5879 35.3615 29.8709 34.8453 29.6845 35.7487C29.5698 36.2792 29.8709 36.8242 30.129 37.2113V37.197ZM31.52 35.9351C31.52 35.9351 31.2475 36.9675 30.3298 37.5411C29.4694 38.086 29.326 39.52 29.3547 39.9072C29.4981 40.0362 29.6415 40.1796 29.7705 40.3374C29.8135 39.7781 30.1003 39.0181 31.1471 38.5306L31.2045 38.5019L31.3479 38.3872C32.4807 37.5555 31.5343 35.9208 31.5343 35.9208L31.52 35.9351ZM31.3049 38.9034C29.4837 39.7638 30.3584 41.4845 30.3871 41.4845C30.3871 41.4845 30.8603 40.8536 31.8354 40.0362C32.8105 39.2332 34.4022 39.3192 34.4022 39.3192C34.4022 39.3192 33.5992 37.8136 31.3049 38.9034ZM33.0686 36.7381C33.0686 36.5947 33.0686 36.2936 33.1117 36.0498C32.7388 36.1645 32.409 36.2792 32.1509 36.394C32.2226 36.6234 32.2656 36.8672 32.28 37.1109C32.5381 36.9962 32.8105 36.8958 33.0686 36.8098V36.7381ZM23.16 38.9464C23.16 38.9464 23.0452 39.5343 23.6762 39.8068C24.3071 40.0792 24.7947 39.6347 24.7947 39.3909C24.7947 39.2045 24.7086 39.0468 24.6226 38.8604C24.5079 38.674 24.4218 38.4732 24.3501 38.2725L24.1064 38.4445C23.9343 38.5449 23.7335 38.6023 23.5328 38.6023C23.3894 38.6023 23.246 38.5736 23.1026 38.5019C23.0596 38.6166 23.0596 38.76 23.16 38.9464ZM25.7268 36.3223C25.8415 36.1215 25.9132 35.8777 25.9132 35.5766C25.9132 34.4294 25.2822 34.1283 24.0634 34.2143C22.8158 34.3004 22.3426 33.2106 21.9841 33.3396C21.1811 33.6551 21.3962 34.9457 21.3962 34.9457C21.4105 35.72 21.7547 35.8347 21.7547 35.8347C21.7547 35.8347 22.0558 35.2898 22.6007 35.3185C23.1456 35.3328 23.5041 35.2325 23.9917 35.1894C24.4792 35.1464 24.2641 35.5766 24.2641 35.5766C23.9343 36.2219 24.0347 36.6951 24.4362 36.9102L24.6083 36.9532L24.6943 36.8815L24.766 36.8098C24.9094 36.5947 25.1101 36.3366 25.1101 36.3366C25.3109 36.0785 25.6407 35.6483 25.6407 35.6483L25.7124 36.3079L25.7268 36.3223ZM82.4256 36.1358H68.9751V39.2189H73.2196V55.5804C73.2196 57.1291 73.3917 58.6777 73.7215 60.1977C74.0369 61.6604 74.6679 63.037 75.5856 64.2128C76.489 65.3887 77.7366 66.3208 79.3283 67.0234C80.92 67.726 82.9705 68.0845 85.48 68.0845C93.7539 68.0845 97.8837 63.9117 97.8837 55.566V39.2045H101.942V36.1215H89.0075V39.2045H93.6822V55.566C93.6822 56.9857 93.5245 58.2619 93.2234 59.4234C92.9222 60.5849 92.449 61.5743 91.8181 62.406C91.1584 63.2521 90.2981 63.9117 89.3086 64.3275C88.2762 64.7721 87.0286 65.0015 85.566 65.0015C83.8739 65.0015 82.4973 64.7147 81.4362 64.1411C80.3751 63.5675 79.5434 62.8219 78.9268 61.9041C78.3245 60.9864 77.923 59.9826 77.7079 58.8641C77.4928 57.7457 77.3924 56.6558 77.3924 55.566V39.2045H82.3969V36.1215L82.4256 36.1358ZM112.252 45.6717H104.566V48.7547H108.337V64.5426H104.566V67.6257H116.023V64.5426H112.252V55.1502C112.252 53.2 112.768 51.5509 113.786 50.246C114.804 48.9411 116.368 48.2672 118.461 48.2672C120.368 48.2672 121.688 48.7834 122.404 49.8015C123.121 50.834 123.48 52.2249 123.48 53.9887V64.5283H119.709V67.6113H131.166V64.5283H127.395V53.1713C127.395 50.5472 126.792 48.554 125.588 47.206C124.383 45.8581 122.404 45.1842 119.666 45.1842C118.103 45.1698 116.554 45.5713 115.206 46.36C113.858 47.1487 112.912 48.2528 112.367 49.6581H112.266V45.6574L112.252 45.6717ZM223.026 62.5494C222.624 61.8898 222.409 61.0294 222.38 59.9683H219.326V67.6257H222.38V64.5857H222.481C222.71 65.2023 223.097 65.7472 223.571 66.1917C224.058 66.6362 224.603 66.9947 225.191 67.2815C225.807 67.5683 226.453 67.7834 227.127 67.9125C227.786 68.0415 228.446 68.0989 229.106 68.0989C230.21 68.0989 231.314 67.9698 232.389 67.7117C233.422 67.4823 234.411 67.0664 235.3 66.4785C236.161 65.9192 236.863 65.1736 237.38 64.2845C237.896 63.3811 238.168 62.2913 238.168 61.0151C238.168 59.7389 237.924 58.7638 237.423 58.0325C236.921 57.2868 236.29 56.7132 235.515 56.2687C234.741 55.8385 233.852 55.523 232.863 55.3079C231.873 55.0928 230.912 54.9208 229.952 54.7487C229.249 54.6196 228.518 54.5049 227.758 54.3902C226.998 54.2755 226.281 54.1177 225.635 53.9313C224.99 53.7449 224.445 53.4725 224.029 53.1426C223.614 52.8128 223.413 52.3109 223.413 51.6657C223.413 50.963 223.585 50.3894 223.915 49.9592C224.259 49.5147 224.703 49.1706 225.205 48.9268C225.75 48.6687 226.324 48.4823 226.926 48.3962C227.543 48.2958 228.145 48.2528 228.718 48.2528C229.493 48.2528 230.267 48.3102 231.027 48.4392C231.701 48.554 232.332 48.7834 232.906 49.1419C233.451 49.486 233.895 49.9592 234.196 50.5328C234.512 51.1208 234.669 51.9094 234.669 52.8702H237.724V45.643H234.669V48.2958H234.569C233.995 47.1917 233.035 46.3457 231.873 45.8868C230.683 45.3992 229.364 45.1698 227.93 45.1698C226.912 45.1698 225.894 45.3132 224.904 45.5713C223.929 45.8294 223.026 46.2596 222.208 46.8475C221.42 47.4211 220.746 48.1668 220.258 49.0128C219.756 49.8875 219.498 50.8913 219.498 52.0528C219.498 53.3434 219.771 54.3472 220.315 55.0928C220.86 55.8385 221.592 56.4408 222.409 56.8423C223.312 57.2868 224.273 57.6023 225.277 57.7743C226.309 57.9608 227.342 58.1472 228.374 58.3049C228.977 58.4053 229.608 58.477 230.253 58.5487C230.869 58.606 231.472 58.7351 232.045 58.9502C232.561 59.1509 233.035 59.4521 233.408 59.8679C233.78 60.2694 233.952 60.843 233.952 61.5743C233.952 62.1479 233.809 62.6498 233.522 63.0943C233.235 63.5245 232.863 63.883 232.418 64.1841C231.974 64.4709 231.486 64.686 230.97 64.8151C230.439 64.9442 229.937 65.0015 229.464 65.0015C228.575 65.0015 227.715 64.9442 226.869 64.8151C226.023 64.686 225.277 64.4423 224.603 64.0694C223.943 63.6966 223.398 63.1804 223.011 62.5351L223.026 62.5494Z" fill="white"/>
</svg>
