<svg width="1440" height="743" viewBox="0 0 1440 743" fill="none" xmlns="http://www.w3.org/2000/svg">
<g opacity="0.5">
<path d="M-77.2041 227.709L-81.054 223.1L-80.6766 222.78L-82.0985 221.078L-79.9583 220.492L-80.097 220.007L-74.3332 218.428L-74.1944 218.914L-68.4305 217.335L-68.5693 216.85L-62.8054 215.272L-62.6667 215.757L-56.9028 214.179L-57.0415 213.693L-51.2776 212.115L-51.1389 212.6L-45.375 211.022L-45.5138 210.537L-39.7499 208.958L-39.6111 209.444L-33.8473 207.865L-33.986 207.38L-28.2221 205.802L-28.0834 206.287L-22.3195 204.709L-22.4582 204.223L-16.6944 202.645L-16.5556 203.13L-10.7917 201.552L-10.9305 201.067L-5.16658 199.488L-5.02784 199.974L0.736031 198.395L0.597289 197.91L6.36118 196.332L6.49992 196.817L12.2638 195.239L12.125 194.753L17.8889 193.175L18.0277 193.66L23.7915 192.082L23.6528 191.597L29.4167 190.018L29.5554 190.504L35.3193 188.925L35.1806 188.44L40.9444 186.861L41.0832 187.347L46.8471 185.768L46.7083 185.283L52.4722 183.705L52.6109 184.19L58.3748 182.612L58.2361 182.126L64 180.548L64.1387 181.033L69.9026 179.455L69.7638 178.97L75.5277 177.391L75.6665 177.877L81.4304 176.298L81.2916 175.813L87.0555 174.235L87.1942 174.72L92.9581 173.142L92.8194 172.656L98.5832 171.078L98.722 171.563L104.486 169.985L104.347 169.5L110.111 167.921L110.25 168.407L116.014 166.828L115.875 166.343L121.639 164.765L121.778 165.25L127.541 163.672L127.403 163.186L133.167 161.608L133.305 162.093L139.069 160.515L138.93 160.03L144.694 158.451L144.833 158.937L150.597 157.358L150.458 156.873L156.222 155.295L156.361 155.78L162.125 154.202L161.986 153.716L167.75 152.138L167.889 152.623L173.652 151.045L173.514 150.559L179.278 148.981L179.416 149.466L185.18 147.888L185.041 147.403L190.805 145.824L190.944 146.31L196.708 144.731L196.569 144.246L202.333 142.668L202.472 143.153L208.236 141.575L208.097 141.089L213.861 139.511L214 139.996L219.763 138.418L219.625 137.933L225.389 136.354L225.527 136.84L231.291 135.261L231.153 134.776L236.916 133.198L237.055 133.683L242.819 132.105L242.68 131.619L248.444 130.041L248.583 130.526L250.515 129.997L249.807 131.904L250.273 132.089L248.166 137.762L247.7 137.577L245.593 143.251L246.059 143.435L243.952 149.109L243.486 148.924L241.379 154.598L241.845 154.782L239.738 160.456L239.272 160.271L237.165 165.945L237.632 166.129L235.525 171.803L235.059 171.618L232.952 177.291L233.418 177.476L231.311 183.149L230.845 182.965L228.738 188.638L229.204 188.823L227.097 194.496L226.631 194.312L224.524 199.985L224.99 200.17L222.884 205.843L222.418 205.658L220.311 211.332L220.777 211.517L218.67 217.19L218.204 217.005L216.097 222.679L216.563 222.863L214.456 228.537L213.99 228.352L211.883 234.026L212.349 234.21L210.242 239.884L209.776 239.699L207.67 245.372L208.136 245.557L206.029 251.231L205.563 251.046L203.456 256.719L203.922 256.904L201.815 262.577L201.349 262.393L199.242 268.066L199.708 268.251L197.601 273.924L197.135 273.74L195.028 279.413L195.494 279.598L193.388 285.271L192.921 285.087L190.815 290.76L191.281 290.945L189.174 296.618L188.708 296.433L186.601 302.107L187.067 302.291L184.96 307.965L184.494 307.78L182.387 313.454L182.853 313.638L180.746 319.312L180.28 319.127L178.173 324.801L178.64 324.985L176.533 330.659L176.067 330.474L173.96 336.147L174.426 336.332L172.319 342.006L171.853 341.821L169.746 347.494L170.212 347.679L168.105 353.352L167.639 353.168L165.532 358.841L165.998 359.026L163.892 364.699L163.425 364.515L161.319 370.188L161.785 370.373L159.678 376.046L159.212 375.862L157.105 381.535L157.571 381.72L155.464 387.393L154.998 387.208L152.891 392.882L153.357 393.066L151.25 398.74L150.784 398.555L148.677 404.229L149.144 404.413L147.037 410.087L146.571 409.902L144.464 415.576L144.93 415.76L142.823 421.434L142.357 421.249L140.25 426.922L140.716 427.107L138.609 432.781L138.143 432.596L136.036 438.269L136.502 438.454L134.395 444.127L133.929 443.943L131.823 449.616L132.289 449.801L130.182 455.474L129.716 455.29L127.609 460.963L128.075 461.148L125.968 466.821L125.502 466.636L124.743 468.681L123.367 467.034L122.99 467.353L119.14 462.745L119.517 462.425L115.667 457.816L115.29 458.136L111.44 453.528L111.817 453.208L107.967 448.599L107.59 448.919L103.74 444.311L104.118 443.991L100.268 439.382L99.8903 439.702L96.0404 435.094L96.4178 434.774L92.5679 430.165L92.1906 430.485L88.3407 425.876L88.7181 425.557L84.8682 420.948L84.4908 421.268L80.6409 416.659L81.0183 416.34L77.1684 411.731L76.7911 412.051L72.9412 407.442L73.3186 407.122L69.4687 402.514L69.0913 402.834L65.2414 398.225L65.6188 397.905L61.7689 393.297L61.3916 393.617L57.5417 389.008L57.919 388.688L54.0692 384.08L53.6918 384.4L49.8419 379.791L50.2193 379.471L46.3694 374.863L45.992 375.182L42.1422 370.574L42.5195 370.254L38.6697 365.645L38.2923 365.965L34.4424 361.357L34.8198 361.037L30.9699 356.428L30.5925 356.748L26.7426 352.14L27.12 351.82L23.2701 347.211L22.8928 347.531L19.0429 342.923L19.4203 342.603L15.5704 337.994L15.193 338.314L11.3431 333.705L11.7205 333.386L7.87064 328.777L7.49326 329.097L3.64338 324.488L4.02076 324.168L0.17088 319.56L-0.206495 319.88L-4.05638 315.271L-3.679 314.951L-7.52887 310.343L-7.90626 310.663L-11.7561 306.054L-11.3787 305.734L-15.2286 301.126L-15.606 301.446L-19.4559 296.837L-19.0785 296.517L-22.9284 291.909L-23.3058 292.228L-27.1556 287.62L-26.7783 287.3L-30.6281 282.692L-31.0055 283.011L-34.8554 278.403L-34.478 278.083L-38.3279 273.474L-38.7053 273.794L-42.5552 269.186L-42.1778 268.866L-46.0277 264.257L-46.405 264.577L-50.2549 259.969L-49.8775 259.649L-53.7274 255.04L-54.1048 255.36L-57.9547 250.752L-57.5773 250.432L-61.4272 245.823L-61.8046 246.143L-65.6544 241.534L-65.2771 241.215L-69.1269 236.606L-69.5043 236.926L-73.3542 232.317L-72.9768 231.997L-76.8267 227.389L-77.2041 227.709Z" stroke="#EEEEEE" stroke-dasharray="6 6"/>
<path d="M523.367 586.907L528.732 589.089L528.527 589.565L530.562 590.393L528.979 592.108L529.321 592.448L525.134 596.985L524.792 596.645L520.605 601.182L520.947 601.522L516.76 606.059L516.418 605.72L512.232 610.257L512.573 610.597L508.387 615.134L508.045 614.794L503.858 619.331L504.2 619.671L500.013 624.208L499.671 623.868L495.484 628.405L495.826 628.745L491.639 633.283L491.297 632.943L487.111 637.48L487.452 637.82L483.265 642.357L482.924 642.017L478.737 646.554L479.079 646.894L474.892 651.431L474.55 651.091L470.363 655.629L470.705 655.969L466.518 660.506L466.176 660.166L461.99 664.703L462.331 665.043L458.144 669.58L457.803 669.24L453.616 673.777L453.958 674.117L449.771 678.655L449.429 678.315L445.242 682.852L445.584 683.192L441.397 687.729L441.055 687.389L436.869 691.926L437.21 692.266L433.023 696.803L432.682 696.463L428.495 701.001L428.837 701.341L424.65 705.878L424.308 705.538L420.121 710.075L420.463 710.415L416.276 714.952L415.934 714.612L411.748 719.149L412.089 719.489L407.902 724.027L407.561 723.687L406.061 725.312L405.492 723.206L405.02 723.375L403.442 717.534L403.914 717.365L402.337 711.524L401.864 711.693L400.287 705.852L400.759 705.683L399.181 699.842L398.709 700.011L397.131 694.17L397.603 694.001L396.025 688.16L395.553 688.329L393.975 682.488L394.447 682.319L392.87 676.478L392.397 676.647L390.82 670.806L391.292 670.637L389.714 664.796L389.242 664.965L387.664 659.124L388.136 658.955L386.558 653.114L386.086 653.283L384.508 647.442L384.981 647.273L383.403 641.432L382.93 641.601L381.353 635.76L381.825 635.591L380.247 629.75L379.775 629.919L378.197 624.078L378.669 623.909L377.091 618.068L376.619 618.237L375.041 612.396L375.514 612.227L373.936 606.386L373.463 606.555L371.886 600.714L372.358 600.545L370.78 594.704L370.308 594.873L368.73 589.032L369.202 588.863L367.624 583.022L367.152 583.191L365.574 577.35L366.047 577.181L364.469 571.34L363.996 571.509L362.419 565.668L362.891 565.499L361.313 559.658L360.841 559.827L359.263 553.986L359.735 553.817L358.157 547.976L357.685 548.145L356.107 542.304L356.58 542.135L355.002 536.294L354.529 536.463L352.952 530.622L353.424 530.453L351.846 524.612L351.374 524.781L349.796 518.94L350.268 518.771L349.759 516.885L351.485 517.587L351.689 517.11L357.054 519.291L356.849 519.768L362.214 521.949L362.419 521.472L367.784 523.654L367.579 524.13L372.944 526.312L373.149 525.835L378.514 528.016L378.309 528.493L383.674 530.674L383.879 530.197L389.244 532.378L389.039 532.855L394.404 535.036L394.609 534.559L399.974 536.741L399.769 537.217L405.134 539.399L405.339 538.922L410.704 541.103L410.499 541.58L415.864 543.761L416.068 543.284L421.433 545.465L421.228 545.942L426.593 548.123L426.798 547.646L432.163 549.828L431.958 550.304L437.323 552.486L437.528 552.009L442.893 554.19L442.688 554.667L448.053 556.848L448.258 556.371L453.623 558.552L453.418 559.029L458.783 561.21L458.988 560.733L464.353 562.915L464.148 563.391L469.513 565.573L469.718 565.096L475.083 567.277L474.878 567.754L480.243 569.935L480.447 569.458L485.812 571.639L485.607 572.116L490.972 574.297L491.177 573.82L496.542 576.002L496.337 576.478L501.702 578.66L501.907 578.183L507.272 580.364L507.067 580.841L512.432 583.022L512.637 582.545L518.002 584.726L517.797 585.203L523.162 587.384L523.367 586.907Z" stroke="#EEEEEE" stroke-dasharray="6 6"/>
<path d="M1402.2 68.617L1406.36 64.6908L1406.7 65.0778L1408.18 63.6835L1408.71 65.8099L1409.19 65.7136L1410.68 71.6852L1410.21 71.7815L1411.71 77.7531L1412.18 77.6568L1413.68 83.6283L1413.2 83.7246L1414.7 89.6962L1415.18 89.5999L1416.67 95.5715L1416.2 95.6678L1417.7 101.639L1418.17 101.543L1419.67 107.515L1419.19 107.611L1420.69 113.583L1421.17 113.486L1422.66 119.458L1422.19 119.554L1423.69 125.526L1424.16 125.429L1425.66 131.401L1425.18 131.497L1426.68 137.469L1427.16 137.373L1428.65 143.344L1428.18 143.44L1429.68 149.412L1430.15 149.316L1431.65 155.287L1431.18 155.384L1432.67 161.355L1433.15 161.259L1434.65 167.23L1434.17 167.327L1435.67 173.298L1436.14 173.202L1437.64 179.174L1437.17 179.27L1438.66 185.241L1439.14 185.145L1440.64 191.117L1440.16 191.213L1441.66 197.185L1442.13 197.088L1443.63 203.06L1443.16 203.156L1444.65 209.128L1445.13 209.031L1446.63 215.003L1446.15 215.099L1447.65 221.071L1448.12 220.975L1449.62 226.946L1449.15 227.042L1450.64 233.014L1451.12 232.918L1452.62 238.889L1452.14 238.986L1453.64 244.957L1454.11 244.861L1455.61 250.832L1455.14 250.929L1456.63 256.9L1457.11 256.804L1458.61 262.776L1458.13 262.872L1459.63 268.843L1460.1 268.747L1461.6 274.719L1461.13 274.815L1462.63 280.787L1463.1 280.69L1464.6 286.662L1464.12 286.758L1465.62 292.73L1466.1 292.633L1467.59 298.605L1467.12 298.701L1468.62 304.673L1469.09 304.577L1470.59 310.548L1470.11 310.644L1471.61 316.616L1472.09 316.52L1473.58 322.491L1473.11 322.588L1474.61 328.559L1475.08 328.463L1476.58 334.434L1476.1 334.531L1477.6 340.502L1478.08 340.406L1479.57 346.378L1479.1 346.474L1480.6 352.446L1481.07 352.349L1482.57 358.321L1482.09 358.417L1483.59 364.389L1484.07 364.292L1485.56 370.264L1485.09 370.36L1486.59 376.332L1487.06 376.236L1488.56 382.207L1488.08 382.303L1489.58 388.275L1490.06 388.179L1491.55 394.15L1491.08 394.247L1492.58 400.218L1493.05 400.122L1494.55 406.093L1494.08 406.19L1495.57 412.161L1496.05 412.065L1497.55 418.037L1497.07 418.133L1497.63 420.343L1495.46 419.814L1495.38 420.309L1489.56 418.882L1489.64 418.387L1483.82 416.96L1483.74 417.455L1477.92 416.029L1478 415.533L1472.18 414.107L1472.1 414.602L1466.27 413.175L1466.36 412.68L1460.53 411.253L1460.45 411.748L1454.63 410.321L1454.71 409.826L1448.89 408.399L1448.81 408.895L1442.99 407.468L1443.07 406.973L1437.25 405.546L1437.16 406.041L1431.34 404.614L1431.42 404.119L1425.6 402.692L1425.52 403.187L1419.7 401.761L1419.78 401.265L1413.96 399.839L1413.88 400.334L1408.06 398.907L1408.14 398.412L1402.32 396.985L1402.23 397.48L1396.41 396.053L1396.49 395.558L1390.67 394.131L1390.59 394.626L1384.77 393.2L1384.85 392.705L1379.03 391.278L1378.95 391.773L1373.12 390.346L1373.21 389.851L1367.38 388.424L1367.3 388.919L1361.48 387.492L1361.56 386.997L1355.74 385.571L1355.66 386.066L1349.84 384.639L1349.92 384.144L1344.1 382.717L1344.02 383.212L1338.19 381.785L1338.28 381.29L1332.45 379.863L1332.37 380.358L1326.55 378.932L1326.63 378.437L1320.81 377.01L1320.73 377.505L1314.91 376.078L1314.99 375.583L1309.17 374.156L1309.08 374.651L1303.26 373.224L1303.34 372.729L1297.52 371.303L1297.44 371.798L1291.62 370.371L1291.7 369.876L1285.88 368.449L1285.8 368.944L1279.98 367.517L1280.06 367.022L1274.24 365.595L1274.15 366.09L1268.33 364.664L1268.41 364.169L1262.59 362.742L1262.51 363.237L1256.69 361.81L1256.77 361.315L1250.95 359.888L1250.87 360.383L1245.04 358.956L1245.13 358.461L1239.3 357.034L1239.22 357.53L1233.4 356.103L1233.48 355.608L1227.66 354.181L1227.58 354.676L1221.76 353.249L1221.84 352.754L1216.02 351.327L1215.94 351.822L1210.11 350.396L1210.2 349.9L1204.37 348.474L1204.29 348.969L1198.47 347.542L1198.55 347.047L1192.73 345.62L1192.65 346.115L1186.83 344.688L1186.91 344.193L1181.09 342.766L1181 343.262L1175.18 341.835L1175.26 341.34L1169.44 339.913L1169.36 340.408L1163.54 338.981L1163.62 338.486L1157.8 337.059L1157.72 337.554L1151.9 336.128L1151.98 335.632L1146.16 334.206L1146.07 334.701L1140.25 333.274L1140.33 332.779L1134.51 331.352L1134.43 331.847L1128.61 330.42L1128.69 329.925L1126.73 329.445L1128.12 328.131L1127.78 327.744L1131.93 323.818L1132.28 324.205L1136.44 320.279L1136.09 319.892L1140.25 315.965L1140.59 316.352L1144.75 312.426L1144.41 312.039L1148.57 308.113L1148.91 308.5L1153.07 304.574L1152.72 304.187L1156.88 300.261L1157.23 300.648L1161.38 296.722L1161.04 296.335L1165.2 292.408L1165.54 292.795L1169.7 288.869L1169.36 288.482L1173.51 284.556L1173.86 284.943L1178.02 281.017L1177.67 280.63L1181.83 276.704L1182.17 277.091L1186.33 273.165L1185.99 272.778L1190.15 268.851L1190.49 269.238L1194.65 265.312L1194.3 264.925L1198.46 260.999L1198.8 261.386L1202.96 257.46L1202.62 257.073L1206.78 253.147L1207.12 253.534L1211.28 249.608L1210.93 249.221L1215.09 245.294L1215.44 245.681L1219.59 241.755L1219.25 241.368L1223.41 237.442L1223.75 237.829L1227.91 233.903L1227.57 233.516L1231.72 229.59L1232.07 229.977L1236.23 226.051L1235.88 225.664L1240.04 221.737L1240.38 222.124L1244.54 218.198L1244.2 217.811L1248.36 213.885L1248.7 214.272L1252.86 210.346L1252.51 209.959L1256.67 206.033L1257.02 206.42L1261.17 202.494L1260.83 202.107L1264.99 198.18L1265.33 198.567L1269.49 194.641L1269.15 194.254L1273.3 190.328L1273.65 190.715L1277.81 186.789L1277.46 186.402L1281.62 182.476L1281.96 182.863L1286.12 178.937L1285.78 178.55L1289.94 174.623L1290.28 175.01L1294.44 171.084L1294.09 170.697L1298.25 166.771L1298.6 167.158L1302.75 163.232L1302.41 162.845L1306.57 158.919L1306.91 159.306L1311.07 155.38L1310.73 154.993L1314.88 151.066L1315.23 151.453L1319.38 147.527L1319.04 147.14L1323.2 143.214L1323.54 143.601L1327.7 139.675L1327.36 139.288L1331.51 135.362L1331.86 135.749L1336.02 131.823L1335.67 131.436L1339.83 127.509L1340.17 127.896L1344.33 123.97L1343.99 123.583L1348.15 119.657L1348.49 120.044L1352.65 116.118L1352.3 115.731L1356.46 111.805L1356.81 112.192L1360.96 108.266L1360.62 107.879L1364.78 103.952L1365.12 104.339L1369.28 100.413L1368.94 100.026L1373.09 96.1002L1373.44 96.4871L1377.6 92.5609L1377.25 92.174L1381.41 88.2478L1381.75 88.6348L1385.91 84.7086L1385.57 84.3217L1389.73 80.3955L1390.07 80.7824L1394.23 76.8563L1393.88 76.4693L1398.04 72.5432L1398.39 72.9301L1402.54 69.004L1402.2 68.617Z" stroke="#EEEEEE" stroke-dasharray="6 6"/>
<path d="M981.082 449.826L982.55 444.02L983.029 444.136L983.552 442.069L985.067 443.505L985.408 443.132L989.658 447.162L989.316 447.535L993.565 451.565L993.907 451.192L998.156 455.222L997.814 455.595L1002.06 459.625L1002.41 459.252L1006.65 463.282L1006.31 463.655L1010.56 467.685L1010.9 467.312L1015.15 471.342L1014.81 471.715L1019.06 475.745L1019.4 475.372L1023.65 479.402L1023.31 479.775L1027.56 483.805L1027.9 483.432L1032.15 487.462L1031.81 487.835L1036.06 491.865L1036.4 491.492L1040.65 495.522L1040.31 495.895L1044.56 499.925L1044.9 499.552L1049.15 503.582L1048.81 503.955L1053.05 507.984L1053.4 507.612L1057.65 511.641L1057.3 512.014L1061.55 516.044L1061.9 515.671L1066.14 519.701L1065.8 520.074L1070.05 524.104L1070.39 523.731L1074.64 527.761L1074.3 528.134L1078.55 532.164L1078.89 531.791L1083.14 535.821L1082.8 536.194L1087.05 540.224L1087.39 539.851L1091.64 543.881L1091.3 544.254L1095.55 548.284L1095.89 547.911L1100.14 551.941L1099.8 552.314L1104.05 556.344L1104.39 555.971L1108.64 560.001L1108.3 560.374L1112.54 564.404L1112.89 564.031L1117.14 568.061L1116.79 568.434L1121.04 572.464L1121.39 572.091L1125.63 576.121L1125.29 576.494L1129.54 580.523L1129.88 580.151L1134.13 584.181L1133.79 584.553L1138.04 588.583L1138.38 588.21L1142.63 592.24L1142.29 592.613L1146.54 596.643L1146.88 596.27L1151.13 600.3L1150.79 600.673L1155.04 604.703L1155.38 604.33L1159.63 608.36L1159.29 608.733L1163.54 612.763L1163.88 612.39L1168.13 616.42L1167.79 616.793L1172.03 620.823L1172.38 620.45L1176.63 624.48L1176.28 624.853L1177.85 626.338L1175.85 627.196L1176.03 627.66L1170.6 629.99L1170.41 629.526L1164.98 631.856L1165.16 632.32L1159.72 634.65L1159.54 634.186L1154.1 636.516L1154.29 636.98L1148.85 639.311L1148.67 638.846L1143.23 641.176L1143.41 641.641L1137.98 643.971L1137.8 643.506L1132.36 645.836L1132.54 646.301L1127.11 648.631L1126.92 648.166L1121.49 650.497L1121.67 650.961L1116.23 653.291L1116.05 652.827L1110.61 655.157L1110.8 655.621L1105.36 657.951L1105.18 657.487L1099.74 659.817L1099.92 660.281L1094.49 662.612L1094.31 662.147L1088.87 664.477L1089.05 664.942L1083.62 667.272L1083.43 666.807L1078 669.137L1078.18 669.602L1072.74 671.932L1072.56 671.467L1067.12 673.798L1067.31 674.262L1061.87 676.592L1061.69 676.128L1056.25 678.458L1056.43 678.922L1051 681.252L1050.82 680.788L1045.38 683.118L1045.56 683.582L1040.13 685.913L1039.94 685.448L1034.51 687.778L1034.69 688.243L1029.25 690.573L1029.07 690.108L1023.63 692.438L1023.82 692.903L1018.38 695.233L1018.2 694.768L1012.76 697.099L1012.94 697.563L1007.51 699.893L1007.33 699.429L1001.89 701.759L1002.07 702.223L996.636 704.553L996.453 704.089L991.016 706.419L991.2 706.883L985.764 709.214L985.58 708.749L980.144 711.079L980.327 711.544L974.891 713.874L974.708 713.409L969.272 715.739L969.455 716.204L964.019 718.534L963.835 718.069L958.399 720.4L958.582 720.864L953.146 723.194L952.963 722.73L947.527 725.06L947.71 725.524L942.274 727.854L942.09 727.39L936.654 729.72L936.837 730.184L931.401 732.515L931.218 732.05L925.782 734.38L925.965 734.845L920.529 737.175L920.345 736.71L914.909 739.04L915.092 739.505L909.656 741.835L909.473 741.37L907.663 742.146L908.152 740.213L907.672 740.097L909.14 734.292L909.62 734.407L911.088 728.602L910.608 728.487L912.077 722.681L912.556 722.797L914.024 716.991L913.545 716.876L915.013 711.07L915.492 711.186L916.961 705.38L916.481 705.265L917.949 699.459L918.429 699.575L919.897 693.769L919.418 693.654L920.886 687.849L921.365 687.964L922.833 682.159L922.354 682.043L923.822 676.238L924.302 676.353L925.77 670.548L925.29 670.432L926.758 664.627L927.238 664.742L928.706 658.937L928.227 658.821L929.695 653.016L930.174 653.131L931.643 647.326L931.163 647.21L932.631 641.405L933.111 641.52L934.579 635.715L934.099 635.6L935.568 629.794L936.047 629.91L937.515 624.104L937.036 623.989L938.504 618.183L938.984 618.299L940.452 612.493L939.972 612.378L941.44 606.572L941.92 606.688L943.388 600.882L942.909 600.767L944.377 594.961L944.856 595.077L946.324 589.272L945.845 589.156L947.313 583.351L947.793 583.466L949.261 577.661L948.781 577.545L950.25 571.74L950.729 571.855L952.197 566.05L951.718 565.934L953.186 560.129L953.665 560.244L955.134 554.439L954.654 554.323L956.122 548.518L956.602 548.633L958.07 542.828L957.591 542.713L959.059 536.907L959.538 537.023L961.006 531.217L960.527 531.102L961.995 525.296L962.475 525.412L963.943 519.606L963.463 519.491L964.931 513.685L965.411 513.801L966.879 507.995L966.4 507.88L967.868 502.074L968.347 502.19L969.816 496.385L969.336 496.269L970.804 490.464L971.284 490.579L972.752 484.774L972.272 484.658L973.741 478.853L974.22 478.968L975.688 473.163L975.209 473.047L976.677 467.242L977.156 467.357L978.625 461.552L978.145 461.436L979.613 455.631L980.093 455.747L981.561 449.941L981.082 449.826Z" stroke="#EEEEEE" stroke-dasharray="6 6"/>
<path d="M541.521 225.351L546.96 224.549L547.017 225.083L549.105 224.775L548.689 227.226L549.139 227.332L548.057 233.699L547.607 233.594L546.526 239.962L546.975 240.067L545.894 246.435L545.444 246.329L544.362 252.697L544.812 252.802L543.731 259.17L543.281 259.065L542.199 265.432L542.649 265.538L541.567 271.905L541.118 271.8L540.036 278.168L540.486 278.273L539.404 284.641L538.954 284.536L537.873 290.903L538.323 291.008L537.241 297.376L536.791 297.271L535.71 303.639L536.159 303.744L535.078 310.112L534.628 310.006L533.546 316.374L533.996 316.479L532.915 322.847L532.465 322.742L531.383 329.109L531.833 329.215L530.751 335.582L530.302 335.477L529.22 341.845L529.67 341.95L528.588 348.318L528.138 348.213L527.057 354.58L527.507 354.685L526.425 361.053L525.975 360.948L524.894 367.316L525.343 367.421L524.262 373.788L523.812 373.683L522.73 380.051L523.18 380.156L522.099 386.524L521.649 386.419L520.567 392.786L521.017 392.892L519.935 399.259L519.486 399.154L518.404 405.522L518.854 405.627L517.772 411.995L517.322 411.889L516.241 418.257L516.691 418.362L515.609 424.73L515.159 424.625L514.078 430.993L514.528 431.098L513.446 437.465L512.996 437.36L512.604 439.668L511.016 438.154L510.727 438.572L506.371 434.417L506.66 433.999L502.304 429.844L502.015 430.262L497.659 426.107L497.948 425.689L493.592 421.534L493.303 421.952L488.947 417.797L489.236 417.379L484.88 413.224L484.59 413.642L480.234 409.487L480.524 409.069L476.168 404.914L475.878 405.332L471.522 401.177L471.811 400.759L467.455 396.604L467.166 397.022L462.81 392.867L463.099 392.449L458.743 388.294L458.454 388.712L454.098 384.557L454.387 384.139L450.031 379.984L449.742 380.402L445.386 376.247L445.675 375.829L441.319 371.674L441.03 372.092L436.673 367.937L436.963 367.519L432.607 363.364L432.317 363.782L427.961 359.627L428.251 359.209L423.894 355.054L423.605 355.472L419.249 351.317L419.538 350.899L415.182 346.744L414.893 347.162L410.537 343.007L410.826 342.589L406.47 338.434L406.181 338.852L401.825 334.697L402.114 334.279L397.758 330.124L397.469 330.542L393.113 326.387L393.402 325.969L389.046 321.814L388.756 322.231L384.4 318.076L384.69 317.659L380.334 313.504L380.044 313.921L375.688 309.766L375.977 309.349L371.621 305.194L371.332 305.611L366.976 301.456L367.265 301.039L362.909 296.884L362.62 297.301L358.264 293.146L358.553 292.729L354.197 288.574L353.908 288.991L349.552 284.836L349.841 284.419L345.485 280.264L345.195 280.681L340.839 276.526L341.129 276.109L336.773 271.954L336.483 272.371L332.127 268.216L332.417 267.799L328.06 263.644L327.771 264.061L323.415 259.906L323.704 259.489L322.359 258.206L324.014 257.962L323.956 257.428L329.396 256.626L329.453 257.16L334.892 256.358L334.835 255.824L340.274 255.022L340.331 255.556L345.77 254.754L345.713 254.22L351.152 253.418L351.209 253.952L356.648 253.15L356.591 252.616L362.03 251.814L362.087 252.348L367.527 251.546L367.469 251.012L372.908 250.21L372.966 250.744L378.405 249.943L378.348 249.409L383.787 248.607L383.844 249.141L389.283 248.339L389.226 247.805L394.665 247.003L394.722 247.537L400.161 246.735L400.104 246.201L405.543 245.399L405.6 245.933L411.039 245.131L410.982 244.597L416.421 243.795L416.478 244.329L421.918 243.527L421.86 242.993L427.3 242.191L427.357 242.725L432.796 241.923L432.739 241.389L438.178 240.587L438.235 241.121L443.674 240.319L443.617 239.785L449.056 238.983L449.113 239.517L454.552 238.715L454.495 238.181L459.934 237.38L459.991 237.914L465.43 237.112L465.373 236.578L470.812 235.776L470.87 236.31L476.309 235.508L476.251 234.974L481.691 234.172L481.748 234.706L487.187 233.904L487.13 233.37L492.569 232.568L492.626 233.102L498.065 232.3L498.008 231.766L503.447 230.964L503.504 231.498L508.943 230.696L508.886 230.162L514.325 229.36L514.382 229.894L519.821 229.092L519.764 228.558L525.203 227.756L525.261 228.29L530.7 227.488L530.642 226.954L536.082 226.152L536.139 226.686L541.578 225.885L541.521 225.351Z" stroke="#EEEEEE" stroke-dasharray="6 6"/>
<path d="M912.153 470.835L915.707 475.438L915.305 475.746L916.698 477.551L914.56 478.508L914.758 478.961L909.308 481.402L909.109 480.949L903.659 483.39L903.858 483.843L898.407 486.284L898.209 485.832L892.758 488.273L892.957 488.725L887.507 491.166L887.308 490.714L881.857 493.155L882.056 493.608L876.606 496.049L876.407 495.596L870.957 498.037L871.155 498.49L865.705 500.931L865.506 500.478L860.056 502.919L860.255 503.372L854.804 505.813L854.605 505.361L849.155 507.802L849.354 508.254L843.903 510.695L843.705 510.243L838.254 512.684L838.453 513.136L833.003 515.578L832.804 515.125L827.354 517.566L827.552 518.019L822.102 520.46L821.903 520.007L816.453 522.448L816.652 522.901L811.201 525.342L811.002 524.889L805.552 527.331L805.751 527.783L800.3 530.224L800.102 529.772L794.651 532.213L794.85 532.665L789.4 535.106L789.201 534.654L783.751 537.095L783.949 537.548L778.499 539.989L778.3 539.536L772.85 541.977L773.048 542.43L767.598 544.871L767.399 544.418L761.949 546.86L762.148 547.312L756.697 549.753L756.499 549.301L751.048 551.742L751.247 552.194L745.797 554.635L745.598 554.183L740.147 556.624L740.346 557.077L734.896 559.518L734.697 559.065L732.782 559.923L733.061 557.787L732.563 557.734L733.347 551.726L733.845 551.78L734.629 545.772L734.131 545.719L734.915 539.711L735.413 539.764L736.197 533.756L735.699 533.703L736.483 527.695L736.981 527.748L737.765 521.741L737.267 521.688L738.051 515.68L738.549 515.733L739.333 509.725L738.835 509.672L739.619 503.664L740.117 503.717L740.901 497.71L740.403 497.656L741.187 491.649L741.685 491.702L742.469 485.694L741.971 485.641L742.755 479.633L743.253 479.686L744.037 473.678L743.539 473.625L744.323 467.617L744.821 467.671L745.605 461.663L745.107 461.61L745.891 455.602L746.389 455.655L747.173 449.647L746.675 449.594L747.459 443.586L747.957 443.639L748.741 437.632L748.243 437.578L749.027 431.571L749.525 431.624L750.309 425.616L749.811 425.563L750.595 419.555L751.093 419.608L751.877 413.6L751.379 413.547L752.163 407.539L752.661 407.593L753.445 401.585L752.947 401.532L753.731 395.524L754.229 395.577L755.013 389.569L754.515 389.516L755.299 383.508L755.797 383.561L756.581 377.554L756.083 377.5L756.867 371.493L757.365 371.546L758.149 365.538L757.651 365.485L758.435 359.477L758.933 359.53L759.717 353.522L759.219 353.469L760.003 347.461L760.501 347.515L761.285 341.507L760.787 341.454L761.571 335.446L762.069 335.499L762.853 329.491L762.355 329.438L763.139 323.43L763.637 323.483L764.422 317.476L763.923 317.423L764.707 311.415L765.206 311.468L765.99 305.46L765.491 305.407L766.275 299.399L766.774 299.452L767.558 293.444L767.059 293.391L767.843 287.384L768.342 287.437L768.575 285.648L769.61 286.989L770.012 286.682L773.566 291.285L773.164 291.593L776.718 296.197L777.119 295.889L780.673 300.493L780.271 300.801L783.825 305.404L784.226 305.097L787.78 309.701L787.378 310.008L790.932 314.612L791.333 314.305L794.887 318.908L794.485 319.216L798.039 323.82L798.44 323.512L801.994 328.116L801.592 328.424L805.146 333.027L805.547 332.72L809.101 337.324L808.699 337.631L812.253 342.235L812.654 341.927L816.208 346.531L815.806 346.839L819.36 351.443L819.762 351.135L823.315 355.739L822.913 356.046L826.467 360.65L826.869 360.343L830.422 364.947L830.02 365.254L833.574 369.858L833.976 369.55L837.529 374.154L837.128 374.462L840.681 379.066L841.083 378.758L844.636 383.362L844.235 383.669L847.788 388.273L848.19 387.966L851.743 392.57L851.342 392.877L854.895 397.481L855.297 397.173L858.85 401.777L858.449 402.085L862.002 406.689L862.404 406.381L865.957 410.985L865.556 411.292L869.109 415.896L869.511 415.589L873.064 420.192L872.663 420.5L876.216 425.104L876.618 424.796L880.172 429.4L879.77 429.708L883.323 434.311L883.725 434.004L887.279 438.608L886.877 438.915L890.43 443.519L890.832 443.212L894.386 447.815L893.984 448.123L897.538 452.727L897.939 452.419L901.493 457.023L901.091 457.331L904.645 461.934L905.046 461.627L908.6 466.231L908.198 466.538L911.752 471.142L912.153 470.835Z" stroke="#EEEEEE" stroke-dasharray="6 6"/>
</g>
</svg>
