<svg width="1440" height="550" viewBox="0 0 1440 550" fill="none" xmlns="http://www.w3.org/2000/svg">
<path d="M103.608 213.95L107.684 209.737L108.044 210.092L109.502 208.587L110.156 210.687L110.631 210.546L112.446 216.375L111.972 216.516L113.787 222.345L114.262 222.205L116.078 228.034L115.603 228.175L117.419 234.004L117.893 233.863L119.709 239.692L119.234 239.833L121.05 245.662L121.524 245.521L123.34 251.351L122.866 251.492L124.681 257.321L125.156 257.18L126.971 263.009L126.497 263.15L128.313 268.979L128.787 268.838L130.603 274.668L130.128 274.808L131.944 280.638L132.418 280.497L134.234 286.326L133.759 286.467L135.575 292.296L136.05 292.155L137.865 297.984L137.391 298.125L139.206 303.955L139.681 303.814L141.497 309.643L141.022 309.784L142.838 315.613L143.312 315.472L145.128 321.301L144.653 321.442L146.469 327.271L146.944 327.131L148.759 332.96L148.285 333.101L150.1 338.93L150.575 338.789L152.391 344.618L151.916 344.759L153.732 350.588L154.206 350.447L156.022 356.277L155.547 356.418L157.363 362.247L157.838 362.106L159.653 367.935L159.179 368.076L159.797 370.061L157.911 369.415L157.761 369.891L152.16 367.973L152.31 367.497L146.709 365.579L146.559 366.055L140.958 364.137L141.109 363.661L135.508 361.743L135.357 362.219L129.756 360.301L129.907 359.825L124.306 357.907L124.155 358.383L118.554 356.465L118.705 355.989L113.104 354.071L112.953 354.546L107.353 352.628L107.503 352.153L101.902 350.235L101.752 350.71L96.1507 348.792L96.3013 348.317L90.7004 346.399L90.5498 346.874L84.9489 344.956L85.0995 344.481L79.4986 342.563L79.348 343.038L73.7472 341.12L73.8978 340.645L68.2969 338.727L68.1463 339.202L62.5454 337.284L62.696 336.809L57.0951 334.891L56.9445 335.366L51.3436 333.448L51.4942 332.973L45.8933 331.055L45.7427 331.53L40.1418 329.612L40.2924 329.137L34.6915 327.219L34.5409 327.694L28.94 325.776L29.0906 325.301L23.4897 323.383L23.3391 323.858L17.7382 321.94L17.8888 321.465L12.2879 319.547L12.1373 320.022L6.53638 318.104L6.68697 317.629L4.64711 316.93L6.13402 315.394L5.77415 315.039L9.85056 310.827L10.2104 311.182L14.2868 306.97L13.927 306.615L18.0034 302.403L18.3632 302.758L22.4397 298.546L22.0798 298.191L26.1562 293.979L26.5161 294.334L30.5925 290.121L30.2326 289.767L34.309 285.555L34.6689 285.909L38.7453 281.697L38.3854 281.342L42.4619 277.13L42.8217 277.485L46.8981 273.273L46.5383 272.918L50.6147 268.706L50.9746 269.061L55.051 264.849L54.6911 264.494L58.7675 260.282L59.1274 260.637L63.2038 256.425L62.8439 256.07L66.9204 251.858L67.2802 252.213L71.3566 248.001L70.9968 247.646L75.0732 243.434L75.433 243.789L79.5095 239.577L79.1496 239.222L83.226 235.01L83.5859 235.365L87.6623 231.153L87.3024 230.798L91.3788 226.586L91.7387 226.941L95.8151 222.729L95.4552 222.374L99.5317 218.162L99.8915 218.517L103.968 214.304L103.608 213.95Z" stroke="#7FFAF2" stroke-dasharray="6 6"/>
<path d="M1417.41 398.382L1423.04 400.461L1422.86 400.935L1424.94 401.705L1423.35 403.275L1423.69 403.632L1419.36 407.897L1419.02 407.54L1414.68 411.805L1415.02 412.162L1410.69 416.427L1410.35 416.069L1406.02 420.334L1406.36 420.691L1402.03 424.956L1401.69 424.599L1397.35 428.863L1397.69 429.221L1393.36 433.485L1393.02 433.128L1388.69 437.393L1389.03 437.75L1384.7 442.015L1384.36 441.658L1380.02 445.922L1380.36 446.28L1376.03 450.544L1375.69 450.187L1371.36 454.452L1371.7 454.809L1367.37 459.074L1367.03 458.716L1362.69 462.981L1363.03 463.338L1358.7 467.603L1358.36 467.246L1354.03 471.511L1354.37 471.868L1350.03 476.133L1349.69 475.775L1345.36 480.04L1345.7 480.397L1341.37 484.662L1341.03 484.305L1336.7 488.569L1337.04 488.927L1332.7 493.191L1332.36 492.834L1328.03 497.099L1328.37 497.456L1324.04 501.721L1323.7 501.364L1319.37 505.628L1319.71 505.986L1315.37 510.25L1315.03 509.893L1310.7 514.158L1311.04 514.515L1306.71 518.78L1306.37 518.422L1302.04 522.687L1302.38 523.044L1298.04 527.309L1297.7 526.952L1293.37 531.217L1293.71 531.574L1289.38 535.839L1289.04 535.481L1284.71 539.746L1285.05 540.103L1280.71 544.368L1280.37 544.011L1278.79 545.568L1278.19 543.543L1277.71 543.7L1276.05 538.1L1276.52 537.943L1274.86 532.343L1274.38 532.5L1272.72 526.9L1273.19 526.742L1271.53 521.142L1271.05 521.3L1269.39 515.7L1269.86 515.542L1268.2 509.942L1267.72 510.1L1266.06 504.5L1266.53 504.342L1264.87 498.742L1264.39 498.9L1262.72 493.3L1263.2 493.142L1261.53 487.542L1261.06 487.7L1259.39 482.1L1259.87 481.942L1258.2 476.342L1257.73 476.5L1256.06 470.9L1256.54 470.742L1254.87 465.142L1254.4 465.3L1252.73 459.7L1253.21 459.542L1251.54 453.942L1251.07 454.1L1249.4 448.5L1249.88 448.342L1248.21 442.742L1247.74 442.9L1246.07 437.3L1246.55 437.142L1244.88 431.542L1244.4 431.7L1242.74 426.1L1243.21 425.942L1241.55 420.342L1241.07 420.5L1239.41 414.9L1239.88 414.742L1238.22 409.142L1237.74 409.3L1236.08 403.7L1236.55 403.542L1234.89 397.942L1234.41 398.1L1232.75 392.5L1233.22 392.342L1231.56 386.742L1231.08 386.9L1229.42 381.3L1229.89 381.142L1228.23 375.542L1227.75 375.7L1226.09 370.1L1226.56 369.942L1224.89 364.342L1224.42 364.5L1222.75 358.9L1223.23 358.742L1221.56 353.142L1221.09 353.3L1219.42 347.7L1219.9 347.542L1218.23 341.942L1217.76 342.1L1216.09 336.5L1216.57 336.342L1214.9 330.742L1214.43 330.9L1212.76 325.3L1213.24 325.142L1212.7 323.324L1214.56 324.014L1214.74 323.539L1220.37 325.618L1220.19 326.093L1225.82 328.172L1226 327.697L1231.63 329.776L1231.45 330.251L1237.08 332.329L1237.26 331.855L1242.89 333.934L1242.71 334.408L1248.34 336.487L1248.52 336.013L1254.15 338.092L1253.97 338.566L1259.6 340.645L1259.78 340.171L1265.41 342.25L1265.23 342.724L1270.86 344.803L1271.04 344.329L1276.67 346.408L1276.49 346.882L1282.12 348.961L1282.3 348.487L1287.93 350.566L1287.75 351.04L1293.38 353.119L1293.56 352.645L1299.19 354.724L1299.01 355.198L1304.64 357.277L1304.82 356.803L1310.45 358.882L1310.27 359.356L1315.9 361.435L1316.08 360.961L1321.71 363.04L1321.53 363.514L1327.16 365.593L1327.34 365.118L1332.97 367.197L1332.79 367.672L1338.42 369.751L1338.6 369.276L1344.23 371.355L1344.05 371.83L1349.67 373.908L1349.86 373.434L1355.49 375.513L1355.3 375.987L1360.93 378.066L1361.11 377.592L1366.74 379.671L1366.56 380.145L1372.19 382.224L1372.37 381.75L1378 383.829L1377.82 384.303L1383.45 386.382L1383.63 385.908L1389.26 387.987L1389.08 388.461L1394.71 390.54L1394.89 390.066L1400.52 392.145L1400.34 392.619L1405.97 394.698L1406.15 394.224L1411.78 396.303L1411.6 396.777L1417.23 398.856L1417.41 398.382Z" stroke="#7FFAF2" stroke-dasharray="6 6"/>
<path d="M1166 84.625L1171.6 83.875L1171.66 84.3866L1173.79 84.1008L1173.37 86.366L1173.84 86.4668L1172.73 92.4003L1172.26 92.2995L1171.15 98.233L1171.62 98.3337L1170.51 104.267L1170.04 104.166L1168.93 110.1L1169.41 110.201L1168.3 116.134L1167.82 116.033L1166.71 121.967L1167.19 122.068L1166.08 128.001L1165.6 127.9L1164.49 133.834L1164.97 133.935L1163.86 139.868L1163.38 139.767L1162.27 145.701L1162.75 145.802L1161.64 151.735L1161.16 151.634L1160.05 157.568L1160.53 157.669L1159.42 163.602L1158.94 163.502L1157.83 169.435L1158.31 169.536L1157.2 175.469L1156.73 175.368L1155.62 181.302L1156.09 181.403L1154.98 187.336L1154.51 187.235L1153.4 193.169L1153.87 193.27L1152.76 199.203L1152.29 199.102L1151.18 205.036L1151.65 205.137L1150.54 211.07L1150.07 210.97L1148.96 216.903L1149.43 217.004L1148.32 222.937L1147.85 222.837L1146.74 228.77L1147.21 228.871L1146.1 234.804L1145.63 234.704L1145.23 236.831L1143.64 235.455L1143.34 235.855L1138.92 232.024L1139.22 231.624L1134.8 227.792L1134.49 228.192L1130.07 224.361L1130.38 223.961L1125.95 220.129L1125.65 220.529L1121.23 216.698L1121.53 216.298L1117.11 212.466L1116.8 212.866L1112.38 209.035L1112.69 208.635L1108.26 204.803L1107.96 205.203L1103.54 201.372L1103.84 200.972L1099.42 197.14L1099.11 197.54L1094.69 193.709L1095 193.309L1090.57 189.477L1090.27 189.877L1085.85 186.046L1086.15 185.646L1081.73 181.814L1081.42 182.214L1077 178.383L1077.31 177.983L1072.88 174.151L1072.58 174.551L1068.16 170.72L1068.46 170.32L1064.04 166.488L1063.74 166.888L1059.31 163.057L1059.62 162.657L1055.2 158.825L1054.89 159.225L1050.47 155.394L1050.77 154.994L1046.35 151.162L1046.05 151.562L1041.62 147.731L1041.93 147.331L1037.51 143.499L1037.2 143.899L1032.78 140.068L1033.08 139.668L1028.66 135.836L1028.36 136.236L1023.93 132.405L1024.24 132.005L1019.82 128.173L1019.51 128.573L1015.09 124.742L1015.39 124.342L1010.97 120.51L1010.67 120.91L1006.24 117.079L1006.55 116.679L1002.13 112.847L1001.82 113.247L997.399 109.416L997.704 109.016L996.372 107.861L998.048 107.637L997.988 107.125L1003.59 106.375L1003.65 106.887L1009.25 106.137L1009.19 105.625L1014.79 104.875L1014.85 105.387L1020.45 104.637L1020.39 104.125L1025.99 103.375L1026.05 103.887L1031.65 103.137L1031.59 102.625L1037.19 101.875L1037.25 102.387L1042.85 101.637L1042.79 101.125L1048.39 100.375L1048.45 100.887L1054.05 100.137L1053.99 99.625L1059.59 98.875L1059.65 99.3866L1065.25 98.6366L1065.19 98.125L1070.79 97.375L1070.85 97.8866L1076.45 97.1366L1076.39 96.625L1081.99 95.875L1082.05 96.3866L1087.65 95.6366L1087.59 95.125L1093.19 94.375L1093.25 94.8866L1098.85 94.1366L1098.79 93.625L1104.39 92.875L1104.45 93.3866L1110.05 92.6366L1109.99 92.125L1115.59 91.375L1115.66 91.8866L1121.26 91.1366L1121.2 90.625L1126.8 89.875L1126.86 90.3866L1132.46 89.6366L1132.4 89.125L1138 88.375L1138.06 88.8866L1143.66 88.1366L1143.6 87.625L1149.2 86.875L1149.26 87.3866L1154.86 86.6366L1154.8 86.125L1160.4 85.375L1160.46 85.8866L1166.06 85.1366L1166 84.625Z" stroke="#7FFAF2" stroke-dasharray="6 6"/>
<path d="M1006.45 400.375L1005.82 407.125L1005.34 407.089L1005.1 409.583L1003.52 408.45L1003.24 408.875L998.706 405.625L998.989 405.2L994.454 401.95L994.171 402.375L989.636 399.125L989.919 398.7L985.384 395.45L985.101 395.875L980.566 392.625L980.849 392.2L979.18 391.004L981.136 389.678L980.879 389.25L986.039 385.75L986.296 386.178L991.457 382.678L991.2 382.25L996.36 378.75L996.617 379.178L1001.78 375.678L1001.52 375.25L1006.68 371.75L1006.94 372.178L1008.68 370.996L1008.46 373.339L1008.95 373.375L1008.32 380.125L1007.84 380.089L1007.21 386.839L1007.7 386.875L1007.07 393.625L1006.59 393.589L1005.96 400.339L1006.45 400.375Z" stroke="#7FFAF2" stroke-dasharray="6 6"/>
</svg>
